<svg width="25" height="25" viewBox="0 0 25 25" fill="none" xmlns="http://www.w3.org/2000/svg">
<path d="M22.0703 0.0488281H2.92969C1.31416 0.0488281 0 1.36299 0 2.97852V17.6758C0 19.2913 1.31416 20.6055 2.92969 20.6055H9.04541L12.5065 25.0309L15.9105 20.6055H22.0703C23.6858 20.6055 25 19.2913 25 17.6758V2.97852C25 1.36299 23.6858 0.0488281 22.0703 0.0488281ZM23.0469 17.6758C23.0469 18.2142 22.6088 18.6523 22.0703 18.6523H14.9488L12.4935 21.8441L9.99756 18.6523H2.92969C2.39124 18.6523 1.95312 18.2142 1.95312 17.6758V2.97852C1.95312 2.44007 2.39124 2.00195 2.92969 2.00195H22.0703C22.6088 2.00195 23.0469 2.44007 23.0469 2.97852V17.6758ZM11.4758 5.51758C11.4758 4.84333 12.0222 4.29688 12.6965 4.29688C13.3705 4.29688 13.9172 4.84333 13.9172 5.51758C13.9172 6.19183 13.3705 6.73828 12.6965 6.73828C12.0222 6.73828 11.4758 6.19183 11.4758 5.51758ZM14.0249 14.1779L14.8813 15.9332L14.2178 16.2569C13.887 16.4185 13.5317 16.498 13.1781 16.498C12.6827 16.498 12.1912 16.342 11.7758 16.0364C11.064 15.5128 10.7046 14.645 10.8379 13.7716C10.8425 13.7411 10.8486 13.7108 10.8562 13.6808L11.6314 10.5974C11.6474 10.4023 11.5345 10.2873 11.463 10.2346C11.3874 10.1791 11.231 10.1 11.0348 10.1959C10.3706 10.52 10.2339 10.5865 10.2339 10.5865L9.37862 8.83064C9.37901 8.83045 9.51633 8.7635 10.1782 8.44059C10.9726 8.05302 11.9081 8.1377 12.6202 8.66127C13.332 9.18465 13.6913 10.0525 13.5582 10.9259C13.5534 10.9564 13.5473 10.9867 13.5399 11.0167L12.7647 14.1001C12.7487 14.2952 12.8616 14.4102 12.933 14.4629C13.0087 14.5185 13.1649 14.5975 13.3614 14.5016L14.0249 14.1779Z" fill="#365969"/>
</svg>
