<svg width="26" height="26" viewBox="0 0 26 26" fill="none" xmlns="http://www.w3.org/2000/svg">
<g clip-path="url(#clip0)">
<path d="M25.665 20.6371L15.0002 2.95043C14.5801 2.25366 13.8136 1.8208 13 1.8208C12.1863 1.8208 11.4199 2.25366 10.9996 2.95048L0.334925 20.6371C-0.0993057 21.3573 -0.112153 22.2596 0.301358 22.9919C0.714972 23.7241 1.49426 24.179 2.3352 24.179H23.6647C24.5057 24.179 25.285 23.7241 25.6986 22.9918C26.1121 22.2595 26.0993 21.3572 25.665 20.6371ZM24.2247 22.1595C24.1108 22.361 23.8963 22.4863 23.6647 22.4863H2.3352C2.10369 22.4863 1.88914 22.3611 1.77533 22.1595C1.66148 21.9579 1.66504 21.7095 1.78453 21.5113L12.4494 3.82458C12.565 3.63278 12.776 3.51359 13 3.51359C13.224 3.51359 13.435 3.63278 13.5506 3.82458L24.2154 21.5113C24.335 21.7095 24.3385 21.9579 24.2247 22.1595Z" fill="#E89F29"/>
<path d="M13.0078 8.78564C12.3639 8.78564 11.8613 9.13116 11.8613 9.74368C11.8613 11.6125 12.0812 14.2981 12.0812 16.167C12.0812 16.6538 12.5053 16.8579 13.0078 16.8579C13.3847 16.8579 13.9187 16.6538 13.9187 16.167C13.9187 14.2981 14.1385 11.6126 14.1385 9.74368C14.1385 9.13121 13.6203 8.78564 13.0078 8.78564Z" fill="#E89F29"/>
<path d="M13.0238 17.9414C12.3328 17.9414 11.8145 18.4911 11.8145 19.1507C11.8145 19.7946 12.3327 20.36 13.0238 20.36C13.6677 20.36 14.2174 19.7946 14.2174 19.1507C14.2174 18.4911 13.6676 17.9414 13.0238 17.9414Z" fill="#E89F29"/>
</g>
<defs>
<clipPath id="clip0">
<rect width="26" height="26" fill="white"/>
</clipPath>
</defs>
</svg>
