<svg width="18" height="18" viewBox="0 0 18 18" fill="none" xmlns="http://www.w3.org/2000/svg">
<path d="M16.0475 1.70003C17.9775 3.64003 17.9775 6.83003 16.0475 8.77003L8.9975 15.84C7.1175 17.73 4.0875 17.77 2.1375 15.99C2.0775 15.94 2.0075 15.9 1.9475 15.84C0.0175 13.9 0.0175 10.72 1.9475 8.77003L6.8875 3.82003C7.7975 2.90003 9.1675 2.72003 10.2775 3.24003C10.5775 3.39003 10.8675 3.57003 11.1075 3.82003C11.6693 4.38253 11.9849 5.14503 11.9849 5.94003C11.9849 6.73503 11.6693 7.49753 11.1075 8.06003L6.1775 13.01C5.99052 13.197 5.73693 13.3021 5.4725 13.3021C5.20807 13.3021 4.95448 13.197 4.7675 13.01C4.58052 12.8231 4.47548 12.5695 4.47548 12.305C4.47548 12.0406 4.58052 11.787 4.7675 11.6L9.6975 6.65003C9.7902 6.55752 9.86375 6.44763 9.91393 6.32665C9.96411 6.20568 9.98994 6.076 9.98994 5.94503C9.98994 5.81406 9.96411 5.68438 9.91393 5.5634C9.86375 5.44243 9.7902 5.33254 9.6975 5.24003C9.60598 5.14739 9.49698 5.07384 9.37681 5.02364C9.25665 4.97344 9.12772 4.94759 8.9975 4.94759C8.86727 4.94759 8.73835 4.97344 8.61818 5.02364C8.49802 5.07384 8.38902 5.14739 8.2975 5.24003L3.3575 10.19C2.4475 11.11 2.2575 12.48 2.7875 13.59C2.9275 13.89 3.1075 14.18 3.3575 14.43C3.6075 14.68 3.8975 14.86 4.1975 15C5.3075 15.53 6.6675 15.35 7.5875 14.43L14.6375 7.36003C15.1951 6.79328 15.5076 6.03008 15.5076 5.23503C15.5076 4.43998 15.1951 3.67678 14.6375 3.11003C14.0775 2.56003 13.3575 2.28003 12.6375 2.25003C12.4863 2.26773 12.3331 2.25278 12.1882 2.2062C12.0433 2.15963 11.9101 2.0825 11.7975 1.98003C11.4075 1.58003 11.4175 0.930029 11.8175 0.530029C11.9775 0.370029 12.1775 0.290029 12.3775 0.250029C12.5175 0.230029 12.6475 0.240029 12.7775 0.270029C13.9675 0.330029 15.1375 0.790029 16.0475 1.70003Z" fill="black"/>
</svg>
