<svg width="23" height="24" viewBox="0 0 23 24" fill="none" xmlns="http://www.w3.org/2000/svg">
<path d="M20.1957 17.4863C20.1023 16.9878 19.6226 16.6595 19.1241 16.7529C18.6257 16.8464 18.2974 17.3261 18.3907 17.8244C18.4601 18.1942 18.2975 18.4577 18.1945 18.5819C18.0917 18.7057 17.8633 18.9135 17.4884 18.9135H3.5516C3.17677 18.9135 2.94834 18.7058 2.84555 18.5819C2.74254 18.4577 2.57998 18.1942 2.6493 17.8244C2.90973 16.4348 3.43228 15.5207 3.93762 14.6367C4.55135 13.5633 5.18596 12.4532 5.18596 10.7421V9.36489C5.18596 6.4697 7.53927 4.08233 10.4332 4.04033H10.6067C13.4909 4.08224 15.8363 6.46961 15.8363 9.36493V10.7421C15.8363 12.1984 16.3127 13.2005 16.7592 14.0255C16.9254 14.3325 17.2412 14.5068 17.5675 14.5068C17.715 14.5068 17.8648 14.4711 18.0037 14.3959C18.4496 14.1546 18.6155 13.5974 18.3741 13.1515C17.9298 12.3306 17.6726 11.6732 17.6726 10.7421V9.36493C17.6726 7.47537 16.9407 5.69071 15.6117 4.33973C14.4727 3.18192 13.0103 2.4594 11.4293 2.25998V0.918131C11.4293 0.411047 11.0182 0 10.5112 0C10.0041 0 9.59303 0.411047 9.59303 0.918131V2.26269C6.08311 2.71808 3.34974 5.74662 3.34974 9.36493V10.7421C3.34974 11.9654 2.90569 12.7421 2.34352 13.7254C1.7897 14.6942 1.16193 15.7923 0.844441 17.4863C0.692904 18.2949 0.907287 19.1217 1.43264 19.7547C1.95749 20.3871 2.72987 20.7498 3.5516 20.7498H7.77449C7.77449 22.2685 9.01011 23.5041 10.5289 23.5041C12.0477 23.5041 13.2833 22.2685 13.2833 20.7498H17.4884C18.3102 20.7498 19.0826 20.3871 19.6074 19.7547C20.1328 19.1218 20.3471 18.2949 20.1957 17.4863ZM10.5289 21.6679C10.0226 21.6679 9.61075 21.256 9.61075 20.7498H11.447C11.447 21.256 11.0352 21.6679 10.5289 21.6679Z" fill="black"/>
<circle cx="18.5" cy="7.5" r="4.5" fill="#EB3F3F"/>
</svg>
