<svg width="22" height="20" viewBox="0 0 22 20" fill="none" xmlns="http://www.w3.org/2000/svg">
<path d="M10.1197 3.94071L11 5.57458L11.8803 3.94074C12.2062 3.33604 12.743 2.53933 13.5209 1.92834C14.3147 1.30486 15.193 1 16.1562 1C18.8466 1 21 3.22645 21 6.43714C21 8.11671 20.3495 9.5695 19.065 11.1435C17.7553 12.7485 15.8619 14.3914 13.467 16.4642L13.467 16.4642L13.4655 16.4655C12.7198 17.1109 11.8781 17.8393 11 18.6164C10.1224 17.8397 9.28097 17.1115 8.53592 16.4667L8.53356 16.4646L8.53354 16.4646C6.13831 14.3917 4.24485 12.7486 2.93501 11.1435C1.65054 9.5695 1 8.1167 1 6.43714C1 3.22645 3.15338 1 5.84375 1C6.80697 1 7.68529 1.30486 8.47911 1.92834C9.25705 2.53934 9.79384 3.33601 10.1197 3.94071Z" stroke="#365969" stroke-width="2"/>
</svg>
