<svg width="22" height="20" viewBox="0 0 22 20" fill="none" xmlns="http://www.w3.org/2000/svg">
<path d="M21.0961 3.64139H3.89478L3.63909 0.816059C3.59727 0.354025 3.20687 0 2.7392 0H0.903502C0.404511 0 0 0.401223 0 0.896159C0 1.39109 0.404511 1.79232 0.903502 1.79232H1.91319C2.46497 7.8897 1.0389 -7.86977 2.95234 13.2755C3.02609 14.1031 3.47693 15.0012 4.2536 15.6114C2.8533 17.3851 4.13275 20 6.41056 20C8.30112 20 9.63455 18.1298 8.98623 16.3584H13.9312C13.2837 18.1275 14.6143 20 16.5069 20C18.0173 20 19.2461 18.7812 19.2461 17.2831C19.2461 15.7849 18.0173 14.5661 16.5069 14.5661H6.41667C5.73035 14.5661 5.13228 14.1554 4.87413 13.557L19.3133 12.7153C19.7075 12.6924 20.041 12.4181 20.1368 12.0381L21.9726 4.75489C22.115 4.19014 21.684 3.64139 21.0961 3.64139ZM6.41056 18.2077C5.8966 18.2077 5.4784 17.7929 5.4784 17.2831C5.4784 16.7732 5.8966 16.3584 6.41056 16.3584C6.92457 16.3584 7.34276 16.7732 7.34276 17.2831C7.34276 17.7929 6.92457 18.2077 6.41056 18.2077ZM16.5068 18.2077C15.9928 18.2077 15.5746 17.7929 15.5746 17.2831C15.5746 16.7732 15.9928 16.3584 16.5068 16.3584C17.0209 16.3584 17.439 16.7732 17.439 17.2831C17.439 17.7929 17.0209 18.2077 16.5068 18.2077ZM18.5447 10.9648L4.63092 11.7758L4.05698 5.43367H19.9389L18.5447 10.9648Z" fill="#365969"/>
</svg>
