<svg width="17" height="13" viewBox="0 0 17 13" fill="none" xmlns="http://www.w3.org/2000/svg">
<path d="M14.8366 4.9353C14.8625 4.75063 14.875 4.5628 14.875 4.375C14.875 2.03209 12.9689 0.125 10.625 0.125C9.26573 0.125 8.01753 0.767281 7.22686 1.82045C6.94775 1.75298 6.66347 1.71875 6.375 1.71875C4.32471 1.71875 2.65625 3.38721 2.65625 5.4375C2.65625 5.4894 2.65728 5.54023 2.65937 5.59106C1.1227 6.04761 0 7.47328 0 9.15625C0 11.2065 1.66846 12.875 3.71875 12.875H12.75C15.0939 12.875 17 10.9689 17 8.625C17 7.07588 16.1481 5.67616 14.8366 4.9353ZM12.75 11.8125H3.71875C2.25157 11.8125 1.0625 10.6234 1.0625 9.15625C1.0625 7.6891 2.2516 6.5 3.71875 6.5C3.7997 6.5 3.87646 6.5166 3.95532 6.52387C3.80591 6.19184 3.71875 5.82558 3.71875 5.4375C3.71875 3.97032 4.90785 2.78125 6.375 2.78125C6.85439 2.78125 7.29848 2.91821 7.68652 3.14028C8.16797 1.99268 9.30205 1.1875 10.625 1.1875C12.3858 1.1875 13.8125 2.61421 13.8125 4.375C13.8125 4.79419 13.7264 5.19263 13.579 5.55995C14.9352 5.92725 15.9375 7.1537 15.9375 8.625C15.9375 10.3858 14.5108 11.8125 12.75 11.8125Z" fill="white"/>
<path d="M5.3125 7.5625H7.4375V10.75H9.5625V7.5625H11.6875L8.5 4.375L5.3125 7.5625Z" fill="white"/>
</svg>
