<svg width="17" height="17" viewBox="0 0 17 17" fill="none" xmlns="http://www.w3.org/2000/svg">
<g clip-path="url(#clip0)">
<path d="M13.7394 11.4697V13.312C13.7394 13.7157 13.442 14.0953 12.915 14.4289C12.8401 14.4749 12.7603 14.5232 12.6733 14.5667C12.6733 14.5667 12.6708 14.5667 12.6708 14.5691C12.5959 14.6103 12.5161 14.6489 12.4315 14.69C12.1486 14.823 11.8223 14.9463 11.4644 15.0551C11.3847 15.0793 11.3049 15.1034 11.2227 15.1276H11.2203C11.1429 15.1494 11.0631 15.1711 10.9809 15.1929C10.6763 15.2703 10.3548 15.3403 10.0139 15.3984C9.93411 15.4129 9.85433 15.4274 9.77214 15.4395H9.76972C9.68994 15.4516 9.61258 15.4661 9.53039 15.4758C9.21853 15.5217 8.89697 15.558 8.56332 15.5869C8.48355 15.5942 8.40373 15.6015 8.32157 15.6063H8.31916C8.23938 15.6136 8.16202 15.6184 8.07983 15.6233C7.76555 15.6426 7.44157 15.6547 7.11276 15.6571C7.03298 15.6595 6.95321 15.6595 6.87101 15.6595H6.8686C6.7864 15.6595 6.70904 15.6595 6.62926 15.6571C6.30045 15.6547 5.97651 15.6426 5.6622 15.6233C5.58001 15.6184 5.50023 15.6136 5.42045 15.6063H5.41803C5.33584 15.6015 5.25848 15.5942 5.1787 15.5869C4.84506 15.5579 4.52353 15.5217 4.21164 15.4758C4.12944 15.4661 4.04967 15.4516 3.96989 15.4395H3.96747C3.88528 15.4274 3.80792 15.4129 3.72814 15.3984C3.38725 15.3403 3.06572 15.2703 2.76108 15.1929C2.67888 15.1711 2.59669 15.1494 2.51933 15.1276H2.51691C2.43472 15.1034 2.35736 15.0793 2.27758 15.0551C1.91977 14.9463 1.59338 14.823 1.31051 14.69C1.2259 14.6514 1.14613 14.6103 1.06877 14.5667C1.06877 14.5667 1.06635 14.5667 1.06635 14.5643C0.981738 14.5232 0.901961 14.4773 0.827016 14.4289C0.299778 14.0977 0 13.7157 0 13.312V11.4697H13.7394Z" fill="#F6C358"/>
<path d="M13.7394 11.4701C13.7394 11.8739 13.442 12.2534 12.915 12.5822C12.8376 12.633 12.7579 12.6813 12.6708 12.7249C12.5959 12.7684 12.5161 12.8071 12.4315 12.8482C12.1486 12.9812 11.8222 13.102 11.4644 13.2132C11.3846 13.2374 11.3048 13.2616 11.2227 13.2857H11.2202C11.1429 13.3075 11.0631 13.3293 10.9809 13.351C10.6763 13.4284 10.3547 13.4985 10.0139 13.5565C9.93407 13.5711 9.85429 13.5855 9.7721 13.5976H9.76968C9.68991 13.6097 9.61255 13.6242 9.53035 13.6339C9.21849 13.6799 8.89693 13.7161 8.56329 13.7451C8.48351 13.7524 8.4037 13.7596 8.32154 13.7645H8.31912C8.23935 13.7717 8.16199 13.7765 8.07979 13.7814C7.76551 13.8007 7.44154 13.8128 7.11273 13.8152C7.03295 13.8177 6.95317 13.8177 6.87098 13.8177H6.86856C6.78637 13.8177 6.70901 13.8177 6.62923 13.8152C6.30042 13.8129 5.97648 13.8007 5.66216 13.7814C5.57997 13.7765 5.50019 13.7717 5.42042 13.7645H5.418C5.33581 13.7596 5.25844 13.7524 5.17867 13.7451C4.84502 13.7161 4.5235 13.6799 4.2116 13.6339C4.12941 13.6242 4.04963 13.6097 3.96985 13.5976H3.96744C3.88524 13.5855 3.80788 13.5711 3.72811 13.5565C3.38721 13.4985 3.06569 13.4284 2.76104 13.351C2.67885 13.3293 2.59665 13.3075 2.51929 13.2857H2.51688C2.43468 13.2616 2.35732 13.2374 2.27754 13.2132C1.91974 13.1044 1.59334 12.9812 1.31048 12.8482C1.22587 12.8095 1.14609 12.7684 1.06873 12.7249C1.06873 12.7249 1.06631 12.7249 1.06631 12.7225C0.981703 12.6813 0.901926 12.6354 0.826981 12.5871C0.299778 12.2558 0 11.8739 0 11.4701C0 10.1743 3.07763 9.12256 6.87091 9.12256C10.6642 9.12256 13.7394 10.1743 13.7394 11.4701Z" fill="#FCD462"/>
<path d="M6.84909 13.1613C6.78066 13.1613 6.71562 13.1612 6.64856 13.1592C6.33218 13.1567 6.01882 13.1457 5.7016 13.1263C5.62431 13.1217 5.55125 13.1173 5.47823 13.1108L5.44899 13.1082H5.43758C5.37286 13.104 5.31115 13.0982 5.24794 13.0925C4.89976 13.0622 4.5961 13.0272 4.30633 12.9846C4.23962 12.9765 4.19325 12.9689 4.14723 12.9614L4.01685 12.9413C3.96828 12.9334 3.84483 12.9108 3.84483 12.9108C3.53318 12.8578 3.23358 12.7942 2.92147 12.715C2.84919 12.6957 2.77039 12.6749 2.69608 12.654L2.46662 12.585C2.19521 12.5024 1.94505 12.4116 1.72138 12.3142V12.3122L1.35741 12.1347L1.23974 12.0685H1.23494C1.21732 12.058 1.1995 12.047 1.18178 12.0356C0.791434 11.7901 0.655273 11.578 0.655273 11.4698C0.655273 10.8735 3.0148 9.77832 6.87017 9.77832C10.724 9.77832 13.0826 10.8735 13.0826 11.4698C13.0826 11.5777 12.9475 11.788 12.567 12.0253C12.4868 12.0778 12.4304 12.1109 12.3764 12.138L12.3405 12.1574C12.2808 12.1921 12.2169 12.2224 12.1498 12.2551C11.9104 12.3676 11.6134 12.4794 11.2689 12.5865L11.0418 12.654C10.9675 12.6748 10.8909 12.6957 10.812 12.7167C10.5067 12.7941 10.2072 12.8577 9.90311 12.9095C9.8384 12.9212 9.77861 12.9321 9.71862 12.9417L9.58579 12.9622C9.54222 12.9694 9.49876 12.9768 9.45341 12.9821C9.144 13.0273 8.84034 13.0622 8.50561 13.0913C8.4363 13.0976 8.36906 13.1037 8.30039 13.1082L8.25969 13.1109C8.18678 13.1174 8.11586 13.1218 8.04071 13.1261C7.72156 13.1458 7.4082 13.1568 7.10723 13.1589C7.02535 13.1613 6.95667 13.1614 6.8873 13.1614C6.88166 13.1613 6.85529 13.1613 6.84909 13.1613Z" fill="#F6C358"/>
<path d="M1.30967 12.8499V14.6922C1.22506 14.6535 1.14528 14.6124 1.06792 14.5689C1.06792 14.5689 1.0655 14.5689 1.0655 14.5665C0.980894 14.5254 0.901116 14.4795 0.826172 14.4311V12.5889C0.901116 12.6372 0.980894 12.6831 1.0655 12.7243C1.0655 12.7267 1.06792 12.7267 1.06792 12.7267C1.14528 12.7702 1.22506 12.8113 1.30967 12.8499Z" fill="#DC8744"/>
<path d="M2.76084 13.3507V15.1929C2.67865 15.1712 2.59645 15.1494 2.51909 15.1277H2.51668C2.43448 15.1035 2.35712 15.0793 2.27734 15.0551V13.2129C2.35712 13.2371 2.43448 13.2613 2.51668 13.2854H2.51909C2.59645 13.3072 2.67865 13.3289 2.76084 13.3507Z" fill="#DC8744"/>
<path d="M4.21104 13.6335V15.4758C4.12884 15.4661 4.04906 15.4516 3.96929 15.4395H3.96687C3.88468 15.4274 3.80732 15.4129 3.72754 15.3984V13.5562C3.80732 13.5707 3.88468 13.5851 3.96687 13.5972H3.96929C4.04906 13.6093 4.12884 13.6238 4.21104 13.6335Z" fill="#DC8744"/>
<path d="M5.66123 13.7809V15.6231C5.57904 15.6183 5.49926 15.6135 5.41948 15.6062H5.41707C5.33487 15.6014 5.25751 15.5941 5.17773 15.5868V13.7446C5.25751 13.7519 5.33487 13.7591 5.41707 13.764H5.41948C5.49926 13.7712 5.579 13.776 5.66123 13.7809Z" fill="#DC8744"/>
<path d="M7.1124 13.8149V15.6572C7.03263 15.6596 6.95285 15.6596 6.87065 15.6596H6.86824C6.78604 15.6596 6.70868 15.6596 6.62891 15.6572V13.8149C6.70868 13.8174 6.78604 13.8174 6.86824 13.8174H6.87065C6.95285 13.8174 7.03263 13.8174 7.1124 13.8149Z" fill="#DC8744"/>
<path d="M8.5626 13.7446V15.5868C8.48282 15.5941 8.40301 15.6014 8.32085 15.6062H8.31843C8.23866 15.6134 8.1613 15.6183 8.0791 15.6231V13.7809C8.1613 13.776 8.23866 13.7712 8.31843 13.764H8.32085C8.40301 13.7591 8.48279 13.7519 8.5626 13.7446Z" fill="#DC8744"/>
<path d="M10.0128 13.5562V15.3984C9.93302 15.4129 9.85324 15.4274 9.77105 15.4395H9.76863C9.68885 15.4516 9.61149 15.4661 9.5293 15.4758V13.6335C9.61149 13.6238 9.68885 13.6093 9.76863 13.5972H9.77105C9.85324 13.5851 9.93302 13.5707 10.0128 13.5562Z" fill="#DC8744"/>
<path d="M11.464 13.2129V15.0551C11.3842 15.0793 11.3044 15.1035 11.2222 15.1277H11.2198C11.1424 15.1494 11.0627 15.1712 10.9805 15.1929V13.3507C11.0627 13.3289 11.1424 13.3072 11.2198 13.2854H11.2222C11.3044 13.2613 11.3842 13.2371 11.464 13.2129Z" fill="#DC8744"/>
<path d="M12.9142 12.582V14.4291C12.8392 14.475 12.7594 14.5234 12.6724 14.5669C12.6724 14.5669 12.67 14.5669 12.67 14.5693C12.5951 14.6104 12.5153 14.6491 12.4307 14.6902V12.848C12.5153 12.8069 12.5951 12.7682 12.67 12.7247C12.757 12.6811 12.8368 12.6328 12.9142 12.582Z" fill="#DC8744"/>
<path d="M16.4004 8.67578V10.518C16.4004 10.9217 16.103 11.3013 15.576 11.635C15.501 11.6809 15.4212 11.7292 15.3342 11.7728C15.3342 11.7728 15.3318 11.7728 15.3318 11.7752C15.2569 11.8163 15.1771 11.855 15.0925 11.8961C14.8096 12.0291 14.4832 12.1524 14.1254 12.2611C14.0456 12.2853 13.9659 12.3095 13.8837 12.3337H13.8812C13.8039 12.3554 13.7241 12.3772 13.6419 12.3989C13.3373 12.4763 13.0157 12.5464 12.6748 12.6044C12.5951 12.6189 12.5153 12.6334 12.4331 12.6456H12.4307C12.3509 12.6576 12.2735 12.6721 12.1913 12.6818C11.8795 12.7277 11.5579 12.764 11.2243 12.793C11.1445 12.8002 11.0647 12.8075 10.9825 12.8124H10.9801C10.9003 12.8196 10.823 12.8245 10.7408 12.8293C10.4265 12.8486 10.1025 12.8607 9.77372 12.8631C9.69394 12.8656 9.61417 12.8656 9.53197 12.8656H9.52956C9.44736 12.8656 9.37 12.8656 9.29022 12.8631C8.96141 12.8607 8.63747 12.8486 8.32316 12.8293C8.24096 12.8245 8.16119 12.8196 8.08141 12.8124H8.07899C7.9968 12.8075 7.91944 12.8002 7.83966 12.793C7.50602 12.764 7.18449 12.7277 6.8726 12.6818C6.7904 12.6721 6.71063 12.6576 6.63085 12.6456H6.62843C6.54624 12.6334 6.46888 12.6189 6.3891 12.6044C6.04821 12.5464 5.72668 12.4763 5.42203 12.3989C5.33984 12.3772 5.25765 12.3554 5.18029 12.3337H5.17787C5.09568 12.3095 5.01831 12.2853 4.93854 12.2611C4.58073 12.1524 4.25433 12.0291 3.97147 11.8961C3.88686 11.8574 3.80708 11.8163 3.72972 11.7728C3.72972 11.7728 3.72731 11.7728 3.72731 11.7704C3.6427 11.7293 3.56292 11.6834 3.48797 11.635C2.96095 11.3038 2.66113 10.9218 2.66113 10.518V8.67582H16.4004V8.67578Z" fill="#F6C358"/>
<path d="M16.4004 8.67613C16.4004 9.07988 16.103 9.45944 15.576 9.78825C15.4986 9.83899 15.4189 9.88736 15.3318 9.93092C15.2569 9.97442 15.1771 10.0131 15.0925 10.0542C14.8096 10.1872 14.4832 10.3081 14.1254 10.4193C14.0456 10.4434 13.9659 10.4676 13.8837 10.4918H13.8812C13.8039 10.5136 13.7241 10.5353 13.6419 10.5571C13.3373 10.6345 13.0157 10.7046 12.6748 10.7626C12.5951 10.7771 12.5153 10.7916 12.4331 10.8037H12.4307C12.3509 10.8158 12.2735 10.8303 12.1913 10.84C11.8795 10.8859 11.5579 10.9222 11.2243 10.9512C11.1445 10.9584 11.0647 10.9657 10.9825 10.9705H10.9801C10.9003 10.9777 10.823 10.9826 10.7408 10.9874C10.4265 11.0068 10.1025 11.0189 9.77372 11.0213C9.69394 11.0237 9.61417 11.0237 9.53197 11.0237H9.52956C9.44736 11.0237 9.37 11.0237 9.29022 11.0213C8.96141 11.0189 8.63747 11.0068 8.32316 10.9874C8.24096 10.9826 8.16119 10.9778 8.08141 10.9705H8.07899C7.9968 10.9657 7.91944 10.9584 7.83966 10.9512C7.50602 10.9222 7.18449 10.8859 6.8726 10.84C6.7904 10.8303 6.71062 10.8158 6.63085 10.8037H6.62843C6.54624 10.7916 6.46888 10.7771 6.3891 10.7626C6.04821 10.7046 5.72668 10.6345 5.42203 10.5571C5.33984 10.5353 5.25765 10.5136 5.18028 10.4918H5.17787C5.09567 10.4677 5.01831 10.4435 4.93854 10.4193C4.58073 10.3104 4.25433 10.1872 3.97147 10.0542C3.88686 10.0155 3.80708 9.97442 3.72972 9.93092C3.72972 9.93092 3.72731 9.93092 3.72731 9.92851C3.6427 9.88736 3.56292 9.84145 3.48797 9.79312C2.96095 9.46189 2.66113 9.07992 2.66113 8.67616C2.66113 7.38032 5.73876 6.32861 9.53204 6.32861C13.3253 6.32861 16.4004 7.38025 16.4004 8.67613Z" fill="#FCD462"/>
<path d="M9.5098 10.3674C9.44158 10.3674 9.37655 10.3673 9.30973 10.3653C8.99135 10.3628 8.67806 10.3518 8.36297 10.3324C8.28579 10.3278 8.21295 10.3235 8.14024 10.3169L8.11055 10.3143H8.09836C8.03623 10.3103 7.97684 10.3048 7.91621 10.2993C7.55928 10.2681 7.25562 10.2332 6.96768 10.1907C6.90072 10.1826 6.85438 10.1749 6.80826 10.1674L6.67788 10.1474C6.6278 10.1392 6.50565 10.1169 6.50565 10.1169C6.1927 10.0635 5.8932 9.99991 5.58281 9.92098C5.51032 9.90175 5.43152 9.88095 5.35742 9.86L5.12817 9.79126C4.85571 9.7084 4.60552 9.61745 4.38247 9.52027V9.51771L4.01668 9.33995L3.90073 9.2747H3.89614C3.87842 9.26413 3.86059 9.25302 3.84266 9.2415C3.45253 8.99636 3.31641 8.7843 3.31641 8.67595C3.31641 8.07965 5.67593 6.98438 9.5313 6.98438C13.3851 6.98438 15.7438 8.07962 15.7438 8.67595C15.7438 8.78378 15.6087 8.99401 15.2281 9.23138C15.1474 9.28412 15.0909 9.31732 15.0376 9.34415L15.0021 9.36327C14.9423 9.39797 14.8784 9.42841 14.811 9.46108C14.5713 9.57385 14.2745 9.68564 13.9302 9.79259C13.8673 9.81161 13.7029 9.86007 13.7029 9.86007C13.6286 9.88091 13.5521 9.90182 13.4732 9.92276C13.1693 9.99995 12.8698 10.0636 12.564 10.1157C12.4997 10.1274 12.4401 10.1382 12.3802 10.1477L12.2464 10.1684C12.203 10.1756 12.1597 10.1829 12.1145 10.1882C11.8067 10.2333 11.5032 10.2682 11.1667 10.2974C11.097 10.3038 11.0302 10.3099 10.9618 10.3143L10.92 10.317C10.8473 10.3236 10.7767 10.3278 10.7018 10.3322C10.3846 10.3519 10.0714 10.3629 9.76836 10.365C9.68648 10.3674 9.61781 10.3675 9.54843 10.3675C9.54279 10.3674 9.51607 10.3674 9.5098 10.3674Z" fill="#F6C358"/>
<path d="M3.9708 10.0555V11.8977C3.88619 11.8591 3.80641 11.818 3.72905 11.7744C3.72905 11.7744 3.72664 11.7744 3.72664 11.772C3.64203 11.7309 3.56225 11.685 3.4873 11.6367V9.79443C3.56225 9.84276 3.64203 9.88871 3.72664 9.92982C3.72664 9.93224 3.72905 9.93224 3.72905 9.93224C3.80641 9.97574 3.88619 10.0168 3.9708 10.0555Z" fill="#DC8744"/>
<path d="M5.42197 10.5562V12.3985C5.33978 12.3767 5.25759 12.355 5.18022 12.3332H5.17781C5.09561 12.309 5.01825 12.2849 4.93848 12.2607V10.4185C5.01825 10.4426 5.09561 10.4668 5.17781 10.491H5.18022C5.25759 10.5127 5.33978 10.5345 5.42197 10.5562Z" fill="#DC8744"/>
<path d="M6.87217 10.8391V12.6813C6.78997 12.6716 6.7102 12.6571 6.63042 12.6451H6.628C6.54581 12.6329 6.46845 12.6185 6.38867 12.604V10.7617C6.46845 10.7763 6.54581 10.7907 6.628 10.8028H6.63042C6.7102 10.8149 6.78997 10.8294 6.87217 10.8391Z" fill="#DC8744"/>
<path d="M8.32236 10.9864V12.8287C8.24017 12.8239 8.16039 12.819 8.08062 12.8118H8.0782C7.99601 12.8069 7.91864 12.7996 7.83887 12.7924V10.9502C7.91864 10.9574 7.99601 10.9647 8.0782 10.9695H8.08062C8.16039 10.9767 8.24017 10.9816 8.32236 10.9864Z" fill="#DC8744"/>
<path d="M9.77353 11.0205V12.8627C9.69376 12.8652 9.61398 12.8652 9.53179 12.8652H9.52937C9.44718 12.8652 9.36982 12.8652 9.29004 12.8627V11.0205C9.36982 11.0229 9.44718 11.0229 9.52937 11.0229H9.53179C9.61398 11.0229 9.69376 11.0229 9.77353 11.0205Z" fill="#DC8744"/>
<path d="M11.2237 10.9502V12.7924C11.144 12.7996 11.0642 12.8069 10.982 12.8118H10.9796C10.8998 12.819 10.8224 12.8239 10.7402 12.8287V10.9864C10.8224 10.9816 10.8998 10.9768 10.9796 10.9695H10.982C11.0641 10.9647 11.144 10.9574 11.2237 10.9502Z" fill="#DC8744"/>
<path d="M12.6739 10.7617V12.604C12.5941 12.6185 12.5144 12.6329 12.4322 12.6451H12.4298C12.35 12.6571 12.2726 12.6716 12.1904 12.6813V10.8391C12.2726 10.8294 12.35 10.8149 12.4298 10.8028H12.4322C12.5144 10.7907 12.5941 10.7763 12.6739 10.7617Z" fill="#DC8744"/>
<path d="M14.1251 10.4185V12.2607C14.0453 12.2849 13.9655 12.309 13.8833 12.3332H13.8809C13.8036 12.355 13.7238 12.3767 13.6416 12.3985V10.5562C13.7238 10.5345 13.8036 10.5127 13.8809 10.491H13.8833C13.9655 10.4668 14.0453 10.4426 14.1251 10.4185Z" fill="#DC8744"/>
<path d="M15.5753 9.7876V11.6347C15.5003 11.6806 15.4206 11.7289 15.3335 11.7725C15.3335 11.7725 15.3311 11.7725 15.3311 11.7749C15.2562 11.816 15.1764 11.8547 15.0918 11.8958V10.0535C15.1764 10.0124 15.2562 9.97377 15.3311 9.93027C15.4182 9.88671 15.4979 9.83838 15.5753 9.7876Z" fill="#DC8744"/>
<path d="M13.7394 5.88184V7.72407C13.7394 8.12779 13.442 8.50738 12.915 8.84102C12.8401 8.88697 12.7603 8.9353 12.6733 8.97883C12.6733 8.97883 12.6708 8.97883 12.6708 8.98125C12.5959 9.02236 12.5161 9.06106 12.4315 9.10214C12.1486 9.23511 11.8223 9.35842 11.4644 9.4672C11.3847 9.4914 11.3049 9.51552 11.2227 9.53972H11.2203C11.1429 9.56147 11.0631 9.58322 10.9809 9.605C10.6763 9.68236 10.3548 9.75244 10.0139 9.8105C9.93411 9.825 9.85433 9.8395 9.77214 9.85162H9.76972C9.68994 9.8637 9.61258 9.87817 9.53039 9.88787C9.21853 9.93378 8.89697 9.97009 8.56332 9.99906C8.48355 10.0063 8.40373 10.0136 8.32157 10.0184H8.31916C8.23938 10.0257 8.16202 10.0305 8.07983 10.0354C7.76555 10.0547 7.44157 10.0668 7.11276 10.0692C7.03298 10.0716 6.95321 10.0716 6.87101 10.0716H6.8686C6.7864 10.0716 6.70904 10.0716 6.62926 10.0692C6.30045 10.0668 5.97651 10.0547 5.6622 10.0354C5.58001 10.0305 5.50023 10.0257 5.42045 10.0184H5.41803C5.33584 10.0136 5.25848 10.0063 5.1787 9.99906C4.84506 9.97006 4.52353 9.93378 4.21164 9.88787C4.12944 9.8782 4.04967 9.8637 3.96989 9.85162H3.96747C3.88528 9.83954 3.80792 9.825 3.72814 9.8105C3.38725 9.75244 3.06572 9.68236 2.76108 9.605C2.67888 9.58322 2.59669 9.56147 2.51933 9.53972H2.51691C2.43472 9.51552 2.35736 9.4914 2.27758 9.4672C1.91977 9.35842 1.59338 9.23511 1.31051 9.10214C1.2259 9.06348 1.14613 9.02236 1.06877 8.97883C1.06877 8.97883 1.06635 8.97883 1.06635 8.97641C0.981738 8.93533 0.901961 8.88942 0.827016 8.84106C0.299778 8.5098 0 8.12779 0 7.72407V5.88184H13.7394Z" fill="#F6C358"/>
<path d="M13.7394 5.88173C13.7394 6.28549 13.442 6.66504 12.915 6.99385C12.8376 7.0446 12.7579 7.09296 12.6708 7.13653C12.5959 7.18002 12.5161 7.21868 12.4315 7.2598C12.1486 7.39277 11.8222 7.51366 11.4644 7.62486C11.3846 7.64902 11.3048 7.67322 11.2227 7.69735H11.2202C11.1429 7.71913 11.0631 7.74091 10.9809 7.76263C10.6763 7.84002 10.3547 7.91014 10.0139 7.96816C9.93407 7.9827 9.85429 7.99716 9.7721 8.00924H9.76968C9.68991 8.02136 9.61255 8.03586 9.53035 8.04553C9.21849 8.09147 8.89693 8.12772 8.56329 8.15675C8.48351 8.164 8.4037 8.17125 8.32154 8.17608H8.31912C8.23935 8.1833 8.16199 8.18817 8.07979 8.193C7.76551 8.21237 7.44154 8.22445 7.11273 8.22686C7.03295 8.22928 6.95317 8.22928 6.87098 8.22928H6.86856C6.78637 8.22928 6.70901 8.22928 6.62923 8.22686C6.30042 8.22448 5.97648 8.21237 5.66216 8.193C5.57997 8.18817 5.50019 8.18333 5.42042 8.17608H5.418C5.33581 8.17125 5.25844 8.164 5.17867 8.15675C4.84502 8.12772 4.5235 8.09147 4.2116 8.04553C4.12941 8.03586 4.04963 8.02136 3.96985 8.00924H3.96744C3.88524 7.99716 3.80788 7.9827 3.72811 7.96816C3.38721 7.91014 3.06569 7.84002 2.76104 7.76263C2.67885 7.74091 2.59665 7.71913 2.51929 7.69735H2.51688C2.43468 7.67322 2.35732 7.64902 2.27754 7.62486C1.91974 7.51605 1.59334 7.39277 1.31048 7.2598C1.22587 7.2211 1.14609 7.18002 1.06873 7.13653C1.06873 7.13653 1.06631 7.13653 1.06631 7.13411C0.981703 7.09296 0.901926 7.04705 0.826981 6.99872C0.299778 6.66746 0 6.28549 0 5.88173C0 4.58589 3.07763 3.53418 6.87091 3.53418C10.6642 3.53418 13.7394 4.58589 13.7394 5.88173Z" fill="#FCD462"/>
<path d="M6.84947 7.57344C6.78062 7.57344 6.71517 7.57333 6.64768 7.57141C6.33036 7.56885 6.01699 7.55786 5.7016 7.53852C5.62515 7.53394 5.55213 7.52966 5.47908 7.52294L5.44938 7.52028H5.43719C5.37506 7.51632 5.31567 7.51079 5.25505 7.50532C4.89811 7.47416 4.59445 7.43924 4.30651 7.39672C4.24021 7.3886 4.19451 7.38114 4.14902 7.37379L4.01685 7.35351C3.96828 7.34559 3.84483 7.32297 3.84483 7.32297C3.53272 7.26991 3.23326 7.20628 2.92168 7.12703C2.84877 7.1078 2.77018 7.087 2.69608 7.06616L2.46739 6.99731C2.19493 6.91445 1.94463 6.82361 1.72138 6.72632V6.72376L1.35527 6.54579L1.23942 6.48075H1.23504C1.21732 6.47018 1.1996 6.45918 1.18178 6.44777C0.791434 6.2023 0.655273 5.99025 0.655273 5.882C0.655273 5.28571 3.0148 4.19043 6.87017 4.19043C10.724 4.19043 13.0826 5.28567 13.0826 5.882C13.0826 5.98983 12.9475 6.20006 12.567 6.43764C12.4864 6.49018 12.4297 6.52348 12.3764 6.55017L12.341 6.56929C12.2812 6.60399 12.2172 6.63443 12.1499 6.6671C11.9102 6.77987 11.6134 6.89165 11.269 6.99861L11.0418 7.0662C10.9677 7.08704 10.8915 7.10784 10.8129 7.12854C10.5071 7.20628 10.2076 7.26991 9.90308 7.32167C9.83699 7.33362 9.77592 7.34486 9.71474 7.35456L9.58414 7.37463C9.5411 7.38167 9.4981 7.38895 9.45334 7.39417C9.14551 7.43924 8.84198 7.47416 8.50554 7.5034C8.43634 7.5097 8.3692 7.5159 8.30074 7.52028L8.25878 7.52294C8.18587 7.52956 8.11495 7.53394 8.0398 7.53842C7.72331 7.55785 7.40995 7.56885 7.10695 7.57109C7.0257 7.57333 6.9566 7.57344 6.88688 7.57344C6.88141 7.57344 6.85557 7.57344 6.84947 7.57344Z" fill="#F6C358"/>
<path d="M1.30967 7.26206V9.10429C1.22506 9.06563 1.14528 9.02451 1.06792 8.98098C1.06792 8.98098 1.0655 8.98098 1.0655 8.97857C0.980894 8.93749 0.901116 8.89158 0.826172 8.84321V7.00098C0.901116 7.04931 0.980894 7.09525 1.0655 7.13637C1.0655 7.13878 1.06792 7.13878 1.06792 7.13878C1.14528 7.18228 1.22506 7.22336 1.30967 7.26206Z" fill="#DC8744"/>
<path d="M2.76084 7.76277V9.60504C2.67865 9.58326 2.59645 9.56151 2.51909 9.53976H2.51668C2.43448 9.51556 2.35712 9.49143 2.27734 9.46723V7.625C2.35712 7.64916 2.43448 7.67336 2.51668 7.69749H2.51909C2.59645 7.71928 2.67865 7.74106 2.76084 7.76277Z" fill="#DC8744"/>
<path d="M4.21104 8.04562V9.88786C4.12884 9.87819 4.04906 9.8637 3.96929 9.85161H3.96687C3.88468 9.83953 3.80732 9.825 3.72754 9.8105V7.96826C3.80732 7.9828 3.88468 7.99726 3.96687 8.00934H3.96929C4.04906 8.02146 4.12884 8.03599 4.21104 8.04562Z" fill="#DC8744"/>
<path d="M5.66123 8.19299V10.0353C5.57904 10.0304 5.49926 10.0256 5.41948 10.0183H5.41707C5.33487 10.0135 5.25751 10.0062 5.17773 9.99894V8.15674C5.25751 8.16399 5.33487 8.17124 5.41707 8.17607H5.41948C5.49926 8.18332 5.579 8.18815 5.66123 8.19299Z" fill="#DC8744"/>
<path d="M7.1124 8.22705V10.0693C7.03263 10.0717 6.95285 10.0717 6.87065 10.0717H6.86824C6.78604 10.0717 6.70868 10.0717 6.62891 10.0693V8.22705C6.70868 8.22947 6.78604 8.22947 6.86824 8.22947H6.87065C6.95285 8.22947 7.03263 8.22947 7.1124 8.22705Z" fill="#DC8744"/>
<path d="M8.5626 8.15674V9.99894C8.48282 10.0062 8.40301 10.0135 8.32085 10.0183H8.31843C8.23866 10.0256 8.1613 10.0304 8.0791 10.0353V8.19299C8.1613 8.18815 8.23866 8.18332 8.31843 8.17607H8.32085C8.40301 8.17124 8.48279 8.16402 8.5626 8.15674Z" fill="#DC8744"/>
<path d="M10.0128 7.96826V9.8105C9.93302 9.825 9.85324 9.8395 9.77105 9.85161H9.76863C9.68885 9.8637 9.61149 9.87816 9.5293 9.88786V8.04562C9.61149 8.03596 9.68885 8.02146 9.76863 8.00934H9.77105C9.85324 7.99729 9.93302 7.9828 10.0128 7.96826Z" fill="#DC8744"/>
<path d="M11.464 7.625V9.46723C11.3842 9.49143 11.3044 9.51556 11.2222 9.53976H11.2198C11.1424 9.56151 11.0627 9.58326 10.9805 9.60504V7.76277C11.0627 7.74106 11.1424 7.71928 11.2198 7.69749H11.2222C11.3044 7.67336 11.3842 7.64916 11.464 7.625Z" fill="#DC8744"/>
<path d="M12.9142 6.99414V8.8412C12.8392 8.88715 12.7594 8.93548 12.6724 8.97901C12.6724 8.97901 12.67 8.97901 12.67 8.98143C12.5951 9.02254 12.5153 9.06124 12.4307 9.10232V7.26009C12.5153 7.21897 12.5951 7.18031 12.67 7.13681C12.757 7.09325 12.8368 7.04492 12.9142 6.99414Z" fill="#DC8744"/>
<path d="M16.4004 3.0874V4.92964C16.4004 5.33336 16.103 5.71295 15.576 6.04659C15.501 6.09254 15.4212 6.14087 15.3342 6.1844C15.3342 6.1844 15.3318 6.1844 15.3318 6.18681C15.2569 6.22793 15.1771 6.26663 15.0925 6.3077C14.8096 6.44068 14.4832 6.56399 14.1254 6.67276C14.0456 6.69696 13.9659 6.72109 13.8837 6.74529H13.8812C13.8039 6.76704 13.7241 6.78879 13.6419 6.81057C13.3373 6.88793 13.0157 6.95801 12.6748 7.01607C12.5951 7.03057 12.5153 7.04507 12.4331 7.05719H12.4307C12.3509 7.06927 12.2735 7.08373 12.1913 7.09343C11.8795 7.13934 11.5579 7.17566 11.2243 7.20462C11.1445 7.21187 11.0647 7.21916 10.9825 7.22399H10.9801C10.9003 7.23124 10.823 7.23611 10.7408 7.24094C10.4265 7.26024 10.1025 7.27235 9.77372 7.27477C9.69394 7.27719 9.61417 7.27719 9.53197 7.27719H9.52956C9.44736 7.27719 9.37 7.27719 9.29022 7.27477C8.96141 7.27235 8.63747 7.26024 8.32316 7.24094C8.24096 7.23611 8.16119 7.23127 8.08141 7.22399H8.07899C7.9968 7.21916 7.91944 7.21187 7.83966 7.20462C7.50602 7.17563 7.18449 7.13934 6.8726 7.09343C6.7904 7.08377 6.71063 7.06927 6.63085 7.05719H6.62843C6.54624 7.0451 6.46888 7.03057 6.3891 7.01607C6.04821 6.95801 5.72668 6.88793 5.42203 6.81057C5.33984 6.78879 5.25765 6.76704 5.18029 6.74529H5.17787C5.09568 6.72109 5.01831 6.69696 4.93854 6.67276C4.58073 6.56399 4.25433 6.44068 3.97147 6.3077C3.88686 6.26904 3.80708 6.22793 3.72972 6.1844C3.72972 6.1844 3.72731 6.1844 3.72731 6.18198C3.6427 6.1409 3.56292 6.09499 3.48797 6.04662C2.96095 5.7154 2.66113 5.33339 2.66113 4.92967V3.0874H16.4004Z" fill="#F6C358"/>
<path d="M16.4004 3.08775C16.4004 3.4915 16.103 3.87106 15.576 4.19987C15.4986 4.25061 15.4189 4.29898 15.3318 4.34254C15.2569 4.38604 15.1771 4.4247 15.0925 4.46582C14.8096 4.59879 14.4832 4.71968 14.1254 4.83087C14.0456 4.85504 13.9659 4.87924 13.8837 4.9034H13.8812C13.8039 4.92519 13.7241 4.94697 13.6419 4.96868C13.3373 5.04608 13.0157 5.11619 12.6748 5.17422C12.5951 5.18875 12.5153 5.20322 12.4331 5.2153H12.4307C12.3509 5.22742 12.2735 5.24191 12.1913 5.25158C11.8795 5.29753 11.5579 5.33377 11.2243 5.36281C11.1445 5.37005 11.0647 5.3773 10.9825 5.38214H10.9801C10.9003 5.38935 10.823 5.39422 10.7408 5.39905C10.4265 5.41842 10.1025 5.4305 9.77372 5.43292C9.69394 5.43533 9.61417 5.43533 9.53197 5.43533H9.52956C9.44736 5.43533 9.37 5.43533 9.29022 5.43292C8.96141 5.43054 8.63747 5.41842 8.32316 5.39905C8.24096 5.39422 8.16119 5.38939 8.08141 5.38214H8.07899C7.9968 5.3773 7.91944 5.37005 7.83966 5.36281C7.50602 5.33377 7.18449 5.29753 6.8726 5.25158C6.7904 5.24191 6.71062 5.22742 6.63085 5.2153H6.62843C6.54624 5.20322 6.46888 5.18875 6.3891 5.17422C6.04821 5.11619 5.72668 5.04608 5.42203 4.96868C5.33984 4.94697 5.25765 4.92519 5.18028 4.9034H5.17787C5.09567 4.87927 5.01831 4.85507 4.93854 4.83087C4.58073 4.72207 4.25433 4.59879 3.97147 4.46582C3.88686 4.42712 3.80708 4.38604 3.72972 4.34254C3.72972 4.34254 3.72731 4.34254 3.72731 4.34013C3.6427 4.29898 3.56292 4.25307 3.48797 4.20474C2.96095 3.87351 2.66113 3.49154 2.66113 3.08778C2.66113 1.79194 5.73876 0.740234 9.53204 0.740234C13.3253 0.740234 16.4004 1.79191 16.4004 3.08775Z" fill="#FCD462"/>
<path d="M9.50977 4.77918C9.44155 4.77918 9.37651 4.77907 9.30969 4.77704C8.99153 4.77449 8.67813 4.76349 8.36273 4.74416C8.28575 4.73957 8.21294 4.73519 8.14021 4.72857L8.11051 4.72591H8.09832C8.0362 4.72196 7.9768 4.71642 7.91618 4.71096C7.55967 4.67979 7.256 4.64487 6.96743 4.60246C6.90229 4.59444 6.85669 4.58688 6.81134 4.57963L6.67798 4.55914C6.62972 4.55133 6.50565 4.52861 6.50565 4.52861C6.19379 4.47555 5.89429 4.41192 5.58281 4.33266C5.5099 4.31344 5.43131 4.29264 5.35742 4.2718L5.12744 4.20281C4.85603 4.12026 4.60598 4.02931 4.38251 3.93203V3.92936L4.01672 3.7516L3.90076 3.68636H3.89607C3.87846 3.67588 3.86084 3.66489 3.84333 3.65358C3.45253 3.40801 3.31641 3.19596 3.31641 3.08757C3.31641 2.49127 5.67593 1.396 9.5313 1.396C13.3851 1.396 15.7437 2.49124 15.7437 3.08757C15.7437 3.1954 15.6087 3.40563 15.2281 3.64321C15.1475 3.69574 15.0908 3.72905 15.0376 3.75573L15.0021 3.77485C14.9412 3.81019 14.876 3.84115 14.8074 3.87459C14.5715 3.98543 14.2745 4.09722 13.93 4.20431L13.7029 4.2718C13.6288 4.29264 13.5526 4.31344 13.474 4.33414C13.1682 4.41188 12.8687 4.47551 12.5642 4.52727C12.4972 4.53946 12.4364 4.55056 12.3754 4.56016L12.2437 4.58044C12.2008 4.58748 12.1581 4.59462 12.1136 4.59987C11.8064 4.64494 11.5026 4.67972 11.1667 4.709C11.0969 4.71541 11.0301 4.7215 10.9618 4.72588L10.9199 4.72854C10.8472 4.73516 10.7766 4.73954 10.7018 4.74391C10.3844 4.76346 10.0711 4.77445 9.76804 4.77669C9.68638 4.77904 9.6177 4.77914 9.54832 4.77914C9.54276 4.77918 9.51603 4.77918 9.50977 4.77918Z" fill="#F6C358"/>
<path d="M3.9708 4.46811V6.31035C3.88619 6.27168 3.80641 6.23057 3.72905 6.18704C3.72905 6.18704 3.72664 6.18704 3.72664 6.18462C3.64203 6.14354 3.56225 6.09763 3.4873 6.04927V4.20703C3.56225 4.25536 3.64203 4.30131 3.72664 4.34242C3.72664 4.34484 3.72905 4.34484 3.72905 4.34484C3.80641 4.38833 3.88619 4.42945 3.9708 4.46811Z" fill="#DC8744"/>
<path d="M5.42197 4.96883V6.8111C5.33978 6.78931 5.25759 6.76756 5.18022 6.74582H5.17781C5.09561 6.72162 5.01825 6.69749 4.93848 6.67329V4.83105C5.01825 4.85522 5.09561 4.87942 5.17781 4.90358H5.18022C5.25759 4.92533 5.33978 4.94711 5.42197 4.96883Z" fill="#DC8744"/>
<path d="M6.87217 5.25168V7.09391C6.78997 7.08425 6.7102 7.06975 6.63042 7.05767H6.628C6.54581 7.04558 6.46845 7.03105 6.38867 7.01655V5.17432C6.46845 5.18885 6.54581 5.20331 6.628 5.2154H6.63042C6.7102 5.22751 6.78997 5.24205 6.87217 5.25168Z" fill="#DC8744"/>
<path d="M8.32236 5.39904V7.24131C8.24017 7.23648 8.16039 7.23164 8.08062 7.22436H8.0782C7.99601 7.21953 7.91864 7.21224 7.83887 7.20499V5.36279C7.91864 5.37004 7.99601 5.37729 8.0782 5.38212H8.08062C8.16039 5.38937 8.24017 5.39421 8.32236 5.39904Z" fill="#DC8744"/>
<path d="M9.77353 5.43311V7.27534C9.69376 7.27776 9.61398 7.27776 9.53179 7.27776H9.52937C9.44718 7.27776 9.36982 7.27776 9.29004 7.27534V5.43311C9.36982 5.43552 9.44718 5.43552 9.52937 5.43552H9.53179C9.61398 5.43552 9.69376 5.43552 9.77353 5.43311Z" fill="#DC8744"/>
<path d="M11.2237 5.36279V7.20499C11.144 7.21224 11.0642 7.21953 10.982 7.22436H10.9796C10.8998 7.23161 10.8224 7.23647 10.7402 7.24131V5.39904C10.8224 5.39421 10.8998 5.38937 10.9796 5.38212H10.982C11.0641 5.37726 11.144 5.37004 11.2237 5.36279Z" fill="#DC8744"/>
<path d="M12.6739 5.17432V7.01655C12.5941 7.03105 12.5144 7.04555 12.4322 7.05767H12.4298C12.35 7.06975 12.2726 7.08421 12.1904 7.09391V5.25164C12.2726 5.24198 12.35 5.22748 12.4298 5.21536H12.4322C12.5144 5.20331 12.5941 5.18882 12.6739 5.17432Z" fill="#DC8744"/>
<path d="M14.1251 4.83105V6.67329C14.0453 6.69749 13.9655 6.72162 13.8833 6.74582H13.8809C13.8036 6.76756 13.7238 6.78931 13.6416 6.8111V4.96883C13.7238 4.94711 13.8036 4.92533 13.8809 4.90355H13.8833C13.9655 4.87942 14.0453 4.85522 14.1251 4.83105Z" fill="#DC8744"/>
<path d="M15.5753 4.2002V6.04726C15.5003 6.09321 15.4206 6.14154 15.3335 6.18507C15.3335 6.18507 15.3311 6.18507 15.3311 6.18749C15.2562 6.2286 15.1764 6.2673 15.0918 6.30838V4.46614C15.1764 4.42503 15.2562 4.38637 15.3311 4.34287C15.4182 4.29927 15.4979 4.25094 15.5753 4.2002Z" fill="#DC8744"/>
</g>
<defs>
<clipPath id="clip0">
<rect width="16.4" height="16.4" fill="white"/>
</clipPath>
</defs>
</svg>
