<svg width="13" height="13" viewBox="0 0 13 13" fill="none" xmlns="http://www.w3.org/2000/svg">
<g clip-path="url(#clip0)">
<path d="M10.891 9.0918V10.5521C10.891 10.8721 10.6553 11.173 10.2375 11.4375C10.1781 11.4739 10.1149 11.5122 10.0459 11.5467C10.0459 11.5467 10.044 11.5467 10.044 11.5486C9.98455 11.5812 9.92132 11.6119 9.85425 11.6445C9.63003 11.7499 9.3713 11.8476 9.08767 11.9339C9.02443 11.953 8.96117 11.9722 8.89604 11.9913H8.89413C8.8328 12.0086 8.76956 12.0258 8.70441 12.0431C8.46295 12.1044 8.20806 12.16 7.93784 12.206C7.8746 12.2175 7.81136 12.229 7.74621 12.2386H7.74429C7.68105 12.2482 7.61973 12.2596 7.55458 12.2673C7.30737 12.3037 7.05247 12.3325 6.788 12.3554C6.72476 12.3612 6.6615 12.367 6.59637 12.3708H6.59445C6.53122 12.3765 6.46989 12.3804 6.40474 12.3842C6.15562 12.3995 5.89881 12.4091 5.63816 12.4111C5.57493 12.413 5.51169 12.413 5.44653 12.413H5.44462C5.37947 12.413 5.31814 12.413 5.2549 12.4111C4.99426 12.4091 4.73748 12.3995 4.48833 12.3842C4.42318 12.3804 4.35994 12.3766 4.2967 12.3708H4.29478C4.22963 12.367 4.16831 12.3612 4.10507 12.3554C3.8406 12.3325 3.58573 12.3037 3.33849 12.2673C3.27334 12.2596 3.2101 12.2482 3.14686 12.2386H3.14495C3.07979 12.229 3.01847 12.2175 2.95523 12.206C2.68501 12.16 2.43015 12.1044 2.18866 12.0431C2.1235 12.0258 2.05835 12.0086 1.99703 11.9913H1.99511C1.92996 11.9722 1.86864 11.953 1.8054 11.9339C1.52177 11.8476 1.26304 11.7499 1.03882 11.6445C0.971753 11.6138 0.908514 11.5812 0.847192 11.5467C0.847192 11.5467 0.845276 11.5467 0.845276 11.5448C0.778207 11.5123 0.714969 11.4759 0.655562 11.4375C0.237629 11.1749 0 10.8721 0 10.5521V9.0918H10.891Z" fill="#F6C358"/>
<path d="M10.891 9.09182C10.891 9.41187 10.6553 9.71274 10.2375 9.97338C10.1762 10.0136 10.1129 10.0519 10.0439 10.0865C9.98453 10.121 9.92129 10.1516 9.85422 10.1842C9.63 10.2896 9.37127 10.3854 9.08764 10.4736C9.02441 10.4927 8.96114 10.5119 8.89601 10.531H8.8941C8.83278 10.5483 8.76954 10.5656 8.70438 10.5828C8.46292 10.6441 8.20803 10.6997 7.93781 10.7457C7.87457 10.7572 7.81133 10.7687 7.74618 10.7783H7.74426C7.68102 10.7879 7.6197 10.7994 7.55455 10.807C7.30734 10.8434 7.05245 10.8722 6.78797 10.8952C6.72473 10.9009 6.66147 10.9067 6.59634 10.9105H6.59443C6.53119 10.9162 6.46987 10.9201 6.40471 10.9239C6.15559 10.9393 5.89878 10.9489 5.63814 10.9508C5.5749 10.9527 5.51166 10.9527 5.44651 10.9527H5.44459C5.37944 10.9527 5.31812 10.9527 5.25488 10.9508C4.99423 10.9489 4.73745 10.9393 4.4883 10.9239C4.42315 10.9201 4.35991 10.9163 4.29667 10.9105H4.29476C4.2296 10.9067 4.16828 10.9009 4.10504 10.8952C3.84057 10.8722 3.5857 10.8434 3.33847 10.807C3.27331 10.7994 3.21007 10.7879 3.14684 10.7783H3.14492C3.07977 10.7687 3.01844 10.7572 2.95521 10.7457C2.68499 10.6997 2.43012 10.6441 2.18863 10.5828C2.12348 10.5656 2.05832 10.5483 1.997 10.531H1.99508C1.92993 10.5119 1.86861 10.4927 1.80537 10.4736C1.52174 10.3873 1.26301 10.2896 1.03879 10.1842C0.971725 10.1535 0.908487 10.121 0.847164 10.0865C0.847164 10.0865 0.845249 10.0865 0.845249 10.0846C0.778179 10.0519 0.714941 10.0155 0.655534 9.97724C0.237629 9.71465 0 9.41187 0 9.09182C0 8.06463 2.43958 7.23096 5.44645 7.23096C8.45332 7.23096 10.891 8.06463 10.891 9.09182Z" fill="#FCD462"/>
<path d="M5.42926 10.4326C5.37502 10.4326 5.32347 10.4325 5.27031 10.4309C5.01952 10.429 4.77112 10.4203 4.51967 10.4049C4.4584 10.4012 4.40049 10.3978 4.34261 10.3926L4.31943 10.3905H4.31038C4.25908 10.3872 4.21017 10.3826 4.16006 10.3781C3.88406 10.354 3.64335 10.3263 3.41366 10.2926C3.36078 10.2861 3.32403 10.2801 3.28755 10.2741L3.1842 10.2582C3.14569 10.2519 3.04784 10.234 3.04784 10.234C2.8008 10.192 2.56331 10.1416 2.31591 10.0788C2.25861 10.0636 2.19615 10.0471 2.13724 10.0305L1.95535 9.97578C1.74021 9.91035 1.54192 9.83834 1.36461 9.76113V9.75952L1.0761 9.61886L0.982825 9.56639H0.979021C0.965058 9.55801 0.950928 9.54929 0.936881 9.54024C0.627464 9.34567 0.519531 9.17758 0.519531 9.09178C0.519531 8.6191 2.38989 7.75098 5.44598 7.75098C8.50081 7.75098 10.3705 8.61907 10.3705 9.09178C10.3705 9.17733 10.2634 9.34398 9.96176 9.53214C9.89819 9.5737 9.85344 9.60001 9.81069 9.62142L9.78218 9.63682C9.73487 9.66433 9.68427 9.68837 9.63102 9.71427C9.44128 9.80347 9.20582 9.89208 8.93279 9.97697L8.75277 10.0305C8.69386 10.047 8.63318 10.0636 8.57063 10.0802C8.32856 10.1415 8.09118 10.1919 7.85014 10.233C7.79884 10.2423 7.75145 10.2509 7.7039 10.2586L7.5986 10.2748C7.56407 10.2805 7.52962 10.2863 7.49367 10.2906C7.2484 10.3264 7.00769 10.354 6.74236 10.3771C6.68742 10.3821 6.63412 10.387 6.57968 10.3905L6.54742 10.3926C6.48963 10.3978 6.43341 10.4013 6.37384 10.4047C6.12086 10.4203 5.87246 10.429 5.63389 10.4307C5.56898 10.4326 5.51454 10.4327 5.45955 10.4327C5.45508 10.4326 5.43418 10.4326 5.42926 10.4326Z" fill="#F6C358"/>
<path d="M1.03853 10.186V11.6463C0.971464 11.6156 0.908226 11.583 0.846903 11.5485C0.846903 11.5485 0.844988 11.5485 0.844988 11.5466C0.777919 11.514 0.714681 11.4776 0.655273 11.4393V9.979C0.714681 10.0173 0.777919 10.0537 0.844988 10.0863C0.844988 10.0882 0.846903 10.0882 0.846903 10.0882C0.908226 10.1227 0.971464 10.1553 1.03853 10.186Z" fill="#DC8744"/>
<path d="M2.18795 10.5828V12.0432C2.12279 12.0259 2.05764 12.0087 1.99632 11.9914H1.9944C1.92925 11.9723 1.86793 11.9531 1.80469 11.9339V10.4736C1.86793 10.4928 1.92925 10.512 1.9944 10.5311H1.99632C2.05764 10.5484 2.12279 10.5656 2.18795 10.5828Z" fill="#DC8744"/>
<path d="M3.33834 10.8074V12.2677C3.27318 12.2601 3.20995 12.2486 3.14671 12.239H3.14479C3.07964 12.2294 3.01832 12.2179 2.95508 12.2064V10.7461C3.01832 10.7576 3.07964 10.7691 3.14479 10.7787H3.14671C3.20995 10.7882 3.27318 10.7998 3.33834 10.8074Z" fill="#DC8744"/>
<path d="M4.48775 10.9242V12.3846C4.4226 12.3807 4.35936 12.3769 4.29612 12.3711H4.29421C4.22905 12.3673 4.16773 12.3615 4.10449 12.3558V10.8955C4.16773 10.9013 4.22905 10.907 4.29421 10.9108H4.29612C4.35936 10.9166 4.42257 10.9204 4.48775 10.9242Z" fill="#DC8744"/>
<path d="M5.63814 10.9512V12.4115C5.5749 12.4134 5.51167 12.4134 5.44651 12.4134H5.4446C5.37944 12.4134 5.31812 12.4134 5.25488 12.4115V10.9512C5.31812 10.9531 5.37944 10.9531 5.4446 10.9531H5.44651C5.51167 10.9531 5.5749 10.9531 5.63814 10.9512Z" fill="#DC8744"/>
<path d="M6.78756 10.8955V12.3558C6.72432 12.3615 6.66105 12.3673 6.59593 12.3711H6.59401C6.53077 12.3769 6.46945 12.3807 6.4043 12.3846V10.9242C6.46945 10.9204 6.53077 10.9166 6.59401 10.9108H6.59593C6.66105 10.907 6.72429 10.9013 6.78756 10.8955Z" fill="#DC8744"/>
<path d="M7.93795 10.7461V12.2064C7.87471 12.2179 7.81147 12.2294 7.74632 12.239H7.7444C7.68116 12.2486 7.61984 12.26 7.55469 12.2677V10.8074C7.61984 10.7998 7.68116 10.7883 7.7444 10.7787H7.74632C7.81147 10.7691 7.87471 10.7576 7.93795 10.7461Z" fill="#DC8744"/>
<path d="M9.08736 10.4736V11.9339C9.02412 11.9531 8.96086 11.9723 8.89573 11.9914H8.89382C8.83249 12.0087 8.76926 12.0259 8.7041 12.0432V10.5828C8.76926 10.5656 8.83249 10.5484 8.89382 10.5311H8.89573C8.96086 10.512 9.0241 10.4928 9.08736 10.4736Z" fill="#DC8744"/>
<path d="M10.2368 9.97363V11.4378C10.1774 11.4742 10.1141 11.5125 10.0451 11.547C10.0451 11.547 10.0432 11.547 10.0432 11.5489C9.98382 11.5815 9.92058 11.6122 9.85352 11.6448V10.1844C9.92058 10.1519 9.98382 10.1212 10.0432 10.0867C10.1122 10.0522 10.1755 10.0139 10.2368 9.97363Z" fill="#DC8744"/>
<path d="M13.0002 6.87695V8.33726C13.0002 8.65728 12.7645 8.95817 12.3467 9.22265C12.2873 9.25907 12.2241 9.29738 12.1551 9.33188C12.1551 9.33188 12.1532 9.33188 12.1532 9.3338C12.0938 9.36639 12.0306 9.39707 11.9635 9.42963C11.7393 9.53503 11.4805 9.63278 11.1969 9.719C11.1337 9.73819 11.0704 9.75731 11.0053 9.77649H11.0034C10.942 9.79373 10.8788 9.81097 10.8137 9.82824C10.5722 9.88956 10.3173 9.94511 10.0471 9.99114C9.98384 10.0026 9.9206 10.0141 9.85544 10.0237H9.85353C9.79029 10.0333 9.72897 10.0448 9.66381 10.0525C9.41661 10.0889 9.16171 10.1176 8.89724 10.1406C8.834 10.1463 8.77076 10.1521 8.70561 10.156H8.70369C8.64045 10.1617 8.57913 10.1656 8.51398 10.1694C8.26486 10.1847 8.00804 10.1943 7.7474 10.1962C7.68416 10.1981 7.62093 10.1981 7.55577 10.1981H7.55386C7.4887 10.1981 7.42738 10.1981 7.36414 10.1962C7.1035 10.1943 6.84672 10.1847 6.59757 10.1694C6.53241 10.1656 6.46917 10.1617 6.40594 10.156H6.40402C6.33887 10.1521 6.27754 10.1463 6.21431 10.1406C5.94983 10.1176 5.69496 10.0889 5.44773 10.0525C5.38258 10.0448 5.31934 10.0333 5.2561 10.0237H5.25418C5.18903 10.0141 5.12771 10.0026 5.06447 9.99114C4.79425 9.94511 4.53938 9.88956 4.29789 9.82824C4.23274 9.81097 4.16759 9.79373 4.10626 9.77649H4.10435C4.0392 9.75731 3.97787 9.73819 3.91463 9.719C3.63101 9.63278 3.37228 9.53503 3.14806 9.42963C3.08099 9.39898 3.01775 9.36639 2.95643 9.33188C2.95643 9.33188 2.95451 9.33188 2.95451 9.32997C2.88744 9.29741 2.82421 9.26101 2.7648 9.22268C2.34703 8.96012 2.10938 8.65731 2.10938 8.33729V6.87698H13.0002V6.87695Z" fill="#F6C358"/>
<path d="M13.0003 6.87744C13.0003 7.19749 12.7645 7.49835 12.3468 7.759C12.2854 7.79922 12.2222 7.83756 12.1532 7.87209C12.0938 7.90657 12.0306 7.93722 11.9635 7.96981C11.7393 8.07521 11.4805 8.17104 11.1969 8.25918C11.1337 8.27834 11.0704 8.29752 11.0053 8.31667H11.0034C10.942 8.33394 10.8788 8.35121 10.8136 8.36842C10.5722 8.42977 10.3173 8.48535 10.0471 8.53135C9.98383 8.54287 9.9206 8.55433 9.85544 8.56391H9.85353C9.79029 8.57351 9.72897 8.58501 9.66381 8.59267C9.41661 8.62909 9.16171 8.65782 8.89724 8.68084C8.834 8.68658 8.77076 8.69233 8.70561 8.69616H8.70369C8.64045 8.70188 8.57913 8.70574 8.51398 8.70957C8.26485 8.72492 8.00804 8.7345 7.7474 8.73641C7.68416 8.73833 7.62092 8.73833 7.55577 8.73833H7.55386C7.4887 8.73833 7.42738 8.73833 7.36414 8.73641C7.1035 8.73452 6.84671 8.72492 6.59757 8.70957C6.53241 8.70574 6.46917 8.70191 6.40594 8.69616H6.40402C6.33887 8.69233 6.27754 8.68658 6.2143 8.68084C5.94983 8.65782 5.69496 8.62909 5.44773 8.59267C5.38258 8.58501 5.31934 8.57351 5.2561 8.56391H5.25418C5.18903 8.55433 5.12771 8.54287 5.06447 8.53135C4.79425 8.48535 4.53938 8.42977 4.29789 8.36842C4.23274 8.35121 4.16759 8.33394 4.10626 8.31667H4.10435C4.03919 8.29755 3.97787 8.27837 3.91463 8.25918C3.63101 8.17293 3.37228 8.07521 3.14806 7.96981C3.08099 7.93913 3.01775 7.90657 2.95643 7.87209C2.95643 7.87209 2.95451 7.87209 2.95451 7.87018C2.88744 7.83756 2.82421 7.80116 2.7648 7.76285C2.34703 7.5003 2.10938 7.19751 2.10938 6.87746C2.10938 5.85027 4.54896 5.0166 7.55583 5.0166C10.5627 5.0166 13.0003 5.85022 13.0003 6.87744Z" fill="#FCD462"/>
<path d="M7.5383 8.2183C7.48423 8.2183 7.43268 8.21822 7.37971 8.21661C7.12734 8.21467 6.87899 8.20595 6.62923 8.19054C6.56805 8.18691 6.51031 8.18352 6.45268 8.17827L6.42914 8.17616H6.41948C6.37023 8.17303 6.32315 8.16864 6.27509 8.16431C5.99216 8.1396 5.75145 8.11193 5.5232 8.07823C5.47013 8.07179 5.4334 8.06571 5.39684 8.05976L5.29349 8.04386C5.25379 8.03742 5.15696 8.01973 5.15696 8.01973C4.90889 7.97743 4.67149 7.92699 4.42545 7.86441C4.36798 7.84917 4.30552 7.83268 4.24678 7.81608L4.06506 7.76159C3.84909 7.69591 3.65077 7.62382 3.47396 7.54678V7.54475L3.184 7.40384L3.09209 7.35212H3.08845C3.07441 7.34374 3.06027 7.33494 3.04606 7.32581C2.73681 7.13148 2.62891 6.96339 2.62891 6.8775C2.62891 6.40483 4.49926 5.53662 7.55535 5.53662C10.6102 5.53662 12.4798 6.4048 12.4798 6.8775C12.4798 6.96298 12.3728 7.12962 12.0711 7.31778C12.0071 7.35959 11.9624 7.38591 11.9201 7.40717L11.892 7.42233C11.8446 7.44984 11.7939 7.47396 11.7405 7.49986C11.5505 7.58925 11.3152 7.67786 11.0422 7.76265C10.9924 7.77772 10.8621 7.81614 10.8621 7.81614C10.8032 7.83266 10.7425 7.84923 10.68 7.86583C10.4391 7.92701 10.2017 7.97745 9.95934 8.01876C9.90832 8.02806 9.86107 8.03661 9.8136 8.04416L9.70756 8.06057C9.67319 8.06623 9.63882 8.07201 9.60304 8.07623C9.35902 8.11195 9.11842 8.13963 8.85173 8.16281C8.79646 8.16789 8.74349 8.17272 8.68931 8.17619L8.65613 8.1783C8.5985 8.18355 8.54256 8.18693 8.48321 8.1904C8.23176 8.20598 7.98344 8.2147 7.74326 8.21639C7.67835 8.21825 7.62392 8.21833 7.56892 8.21833C7.56445 8.2183 7.54327 8.2183 7.5383 8.2183Z" fill="#F6C358"/>
<path d="M3.14791 7.97111V9.43142C3.08084 9.40077 3.0176 9.36818 2.95628 9.33368C2.95628 9.33368 2.95436 9.33368 2.95436 9.33176C2.88729 9.2992 2.82406 9.2628 2.76465 9.22447V7.76416C2.82406 7.80247 2.88729 7.83889 2.95436 7.87148C2.95436 7.8734 2.95628 7.8734 2.95628 7.8734C3.0176 7.90788 3.08084 7.94044 3.14791 7.97111Z" fill="#DC8744"/>
<path d="M4.29732 8.368V9.82833C4.23217 9.81107 4.16702 9.79383 4.10569 9.77659H4.10378C4.03862 9.75741 3.9773 9.73828 3.91406 9.7191V8.25879C3.9773 8.27794 4.03862 8.29713 4.10378 8.31628H4.10569C4.16702 8.33349 4.23217 8.35076 4.29732 8.368Z" fill="#DC8744"/>
<path d="M5.44771 8.59257V10.0529C5.38256 10.0452 5.31932 10.0337 5.25608 10.0241H5.25417C5.18901 10.0145 5.12769 10.003 5.06445 9.99156V8.53125C5.12769 8.54277 5.18901 8.55424 5.25417 8.56381H5.25608C5.31932 8.57342 5.38256 8.58491 5.44771 8.59257Z" fill="#DC8744"/>
<path d="M6.59713 8.7094V10.1697C6.53197 10.1659 6.46873 10.1621 6.4055 10.1563H6.40358C6.33843 10.1525 6.27711 10.1467 6.21387 10.1409V8.68066C6.27711 8.68641 6.33843 8.69216 6.40358 8.69599H6.4055C6.46873 8.70171 6.53197 8.70556 6.59713 8.7094Z" fill="#DC8744"/>
<path d="M7.74752 8.73633V10.1966C7.68428 10.1986 7.62104 10.1986 7.55589 10.1986H7.55397C7.48882 10.1986 7.4275 10.1986 7.36426 10.1966V8.73633C7.4275 8.73824 7.48882 8.73824 7.55397 8.73824H7.55589C7.62104 8.73824 7.68428 8.73824 7.74752 8.73633Z" fill="#DC8744"/>
<path d="M8.89693 8.68066V10.1409C8.8337 10.1467 8.77046 10.1525 8.7053 10.1563H8.70339C8.64015 10.162 8.57883 10.1659 8.51367 10.1697V8.7094C8.57883 8.70556 8.64015 8.70173 8.70339 8.69599H8.7053C8.77043 8.69216 8.8337 8.68641 8.89693 8.68066Z" fill="#DC8744"/>
<path d="M10.0473 8.53125V9.99156C9.98408 10.003 9.92084 10.0145 9.85569 10.0241H9.85378C9.79054 10.0337 9.72922 10.0452 9.66406 10.0529V8.59257C9.72922 8.58491 9.79054 8.57342 9.85378 8.56381H9.85569C9.92084 8.55424 9.98408 8.54277 10.0473 8.53125Z" fill="#DC8744"/>
<path d="M11.1967 8.25879V9.7191C11.1335 9.73828 11.0703 9.75741 11.0051 9.77659H11.0032C10.9419 9.79383 10.8786 9.81107 10.8135 9.82833V8.368C10.8786 8.35079 10.9419 8.33352 11.0032 8.31625H11.0051C11.0702 8.29713 11.1335 8.27794 11.1967 8.25879Z" fill="#DC8744"/>
<path d="M12.3461 7.75879V9.22293C12.2867 9.25935 12.2235 9.29766 12.1545 9.33216C12.1545 9.33216 12.1526 9.33216 12.1526 9.33408C12.0932 9.36667 12.03 9.39735 11.9629 9.42991V7.9696C12.03 7.93701 12.0932 7.90636 12.1526 7.87189C12.2216 7.83735 12.2848 7.79904 12.3461 7.75879Z" fill="#DC8744"/>
<path d="M10.891 4.6626V6.12291C10.891 6.44293 10.6553 6.74382 10.2375 7.0083C10.1781 7.04472 10.1149 7.08303 10.0459 7.11753C10.0459 7.11753 10.044 7.11753 10.044 7.11945C9.98455 7.15204 9.92132 7.18271 9.85425 7.21528C9.63003 7.32068 9.3713 7.41843 9.08767 7.50465C9.02443 7.52383 8.96117 7.54296 8.89604 7.56214H8.89413C8.8328 7.57938 8.76956 7.59662 8.70441 7.61389C8.46295 7.67521 8.20806 7.73076 7.93784 7.77679C7.8746 7.78828 7.81136 7.79977 7.74621 7.80938H7.74429C7.68105 7.81895 7.61973 7.83042 7.55458 7.83811C7.30737 7.8745 7.05247 7.90329 6.788 7.92625C6.72476 7.93199 6.6615 7.93777 6.59637 7.9416H6.59445C6.53122 7.94735 6.46989 7.95121 6.40474 7.95504C6.15562 7.97033 5.89881 7.97994 5.63816 7.98185C5.57493 7.98377 5.51169 7.98377 5.44653 7.98377H5.44462C5.37947 7.98377 5.31814 7.98377 5.2549 7.98185C4.99426 7.97994 4.73748 7.97033 4.48833 7.95504C4.42318 7.95121 4.35994 7.94737 4.2967 7.9416H4.29478C4.22963 7.93777 4.16831 7.93199 4.10507 7.92625C3.8406 7.90326 3.58573 7.8745 3.33849 7.83811C3.27334 7.83045 3.2101 7.81895 3.14686 7.80938H3.14495C3.07979 7.7998 3.01847 7.78828 2.95523 7.77679C2.68501 7.73076 2.43015 7.67521 2.18866 7.61389C2.1235 7.59662 2.05835 7.57938 1.99703 7.56214H1.99511C1.92996 7.54296 1.86864 7.52383 1.8054 7.50465C1.52177 7.41843 1.26304 7.32068 1.03882 7.21528C0.971753 7.18463 0.908514 7.15204 0.847192 7.11753C0.847192 7.11753 0.845276 7.11753 0.845276 7.11562C0.778207 7.08305 0.714969 7.04666 0.655562 7.00832C0.237629 6.74574 0 6.44293 0 6.12291V4.6626H10.891Z" fill="#F6C358"/>
<path d="M10.891 4.66262C10.891 4.98267 10.6553 5.28354 10.2375 5.54418C10.1762 5.5844 10.1129 5.62274 10.0439 5.65728C9.98453 5.69175 9.92129 5.7224 9.85422 5.75499C9.63 5.8604 9.37127 5.95623 9.08764 6.04437C9.02441 6.06352 8.96114 6.0827 8.89601 6.10183H8.8941C8.83278 6.1191 8.76954 6.13636 8.70438 6.15358C8.46292 6.21493 8.20803 6.2705 7.93781 6.3165C7.87457 6.32802 7.81133 6.33949 7.74618 6.34907H7.74426C7.68102 6.35867 7.6197 6.37016 7.55455 6.37782C7.30734 6.41425 7.05245 6.44298 6.78797 6.46599C6.72473 6.47174 6.66147 6.47748 6.59634 6.48132H6.59443C6.53119 6.48703 6.46987 6.49089 6.40471 6.49472C6.15559 6.51008 5.89878 6.51965 5.63814 6.52157C5.5749 6.52348 5.51166 6.52348 5.44651 6.52348H5.44459C5.37944 6.52348 5.31812 6.52348 5.25488 6.52157C4.99423 6.51968 4.73745 6.51008 4.4883 6.49472C4.42315 6.49089 4.35991 6.48706 4.29667 6.48132H4.29476C4.2296 6.47748 4.16828 6.47174 4.10504 6.46599C3.84057 6.44298 3.5857 6.41425 3.33847 6.37782C3.27331 6.37016 3.21007 6.35867 3.14684 6.34907H3.14492C3.07977 6.33949 3.01844 6.32802 2.95521 6.3165C2.68499 6.2705 2.43012 6.21493 2.18863 6.15358C2.12348 6.13636 2.05832 6.1191 1.997 6.10183H1.99508C1.92993 6.0827 1.86861 6.06352 1.80537 6.04437C1.52174 5.95812 1.26301 5.8604 1.03879 5.75499C0.971725 5.72432 0.908487 5.69175 0.847164 5.65728C0.847164 5.65728 0.845249 5.65728 0.845249 5.65536C0.778179 5.62274 0.714941 5.58635 0.655534 5.54804C0.237629 5.28545 0 4.98267 0 4.66262C0 3.63543 2.43958 2.80176 5.44645 2.80176C8.45332 2.80176 10.891 3.63543 10.891 4.66262Z" fill="#FCD462"/>
<path d="M5.42957 6.00343C5.37499 6.00343 5.32311 6.00335 5.26961 6.00182C5.01808 5.9998 4.76968 5.99108 4.51967 5.97575C4.45907 5.97212 4.40119 5.96873 4.34328 5.9634L4.31974 5.96129H4.31008C4.26083 5.95815 4.21375 5.95377 4.16569 5.94944C3.88276 5.92473 3.64205 5.89705 3.4138 5.86335C3.36125 5.85691 3.32503 5.851 3.28896 5.84517L3.1842 5.8291C3.14569 5.82282 3.04784 5.80489 3.04784 5.80489C2.80044 5.76283 2.56306 5.71239 2.31607 5.64957C2.25828 5.63433 2.19598 5.61784 2.13724 5.60132L1.95597 5.54675C1.73999 5.48106 1.54159 5.40905 1.36461 5.33194V5.32991L1.07441 5.18883L0.982575 5.13728H0.979105C0.965058 5.1289 0.951011 5.12018 0.936881 5.11113C0.627464 4.91656 0.519531 4.74847 0.519531 4.66266C0.519531 4.18998 2.38989 3.32178 5.44598 3.32178C8.50081 3.32178 10.3705 4.18996 10.3705 4.66266C10.3705 4.74813 10.2634 4.91478 9.96176 5.10311C9.89785 5.14475 9.85291 5.17115 9.81069 5.1923L9.78259 5.20746C9.73521 5.23497 9.68449 5.25909 9.63111 5.28499C9.44109 5.37438 9.20582 5.46299 8.93288 5.54777L8.75277 5.60135C8.69403 5.61787 8.63359 5.63436 8.5713 5.65076C8.32889 5.71239 8.09149 5.76283 7.85011 5.80386C7.79773 5.81333 7.74931 5.82224 7.70081 5.82993L7.5973 5.84584C7.56318 5.85142 7.52909 5.85719 7.49361 5.86133C7.2496 5.89705 7.009 5.92473 6.7423 5.94791C6.68745 5.95291 6.63423 5.95782 6.57996 5.96129L6.5467 5.9634C6.48891 5.96865 6.43269 5.97212 6.37312 5.97567C6.12225 5.99108 5.87385 5.99979 5.63366 6.00157C5.56926 6.00335 5.51449 6.00343 5.45922 6.00343C5.45489 6.00343 5.4344 6.00343 5.42957 6.00343Z" fill="#F6C358"/>
<path d="M1.03853 5.75627V7.21658C0.971464 7.18593 0.908226 7.15334 0.846903 7.11883C0.846903 7.11883 0.844988 7.11883 0.844988 7.11692C0.777919 7.08436 0.714681 7.04796 0.655273 7.00963V5.54932C0.714681 5.58763 0.777919 5.62405 0.844988 5.65664C0.844988 5.65855 0.846903 5.65855 0.846903 5.65855C0.908226 5.69303 0.971464 5.7256 1.03853 5.75627Z" fill="#DC8744"/>
<path d="M2.18795 6.15315V7.61349C2.12279 7.59622 2.05764 7.57898 1.99632 7.56174H1.9944C1.92925 7.54256 1.86793 7.52343 1.80469 7.50425V6.04395C1.86793 6.0631 1.92925 6.08228 1.9944 6.10141H1.99632C2.05764 6.11868 2.12279 6.13594 2.18795 6.15315Z" fill="#DC8744"/>
<path d="M3.33834 6.37773V7.83804C3.27318 7.83038 3.20995 7.81888 3.14671 7.80931H3.14479C3.07964 7.79973 3.01832 7.78821 2.95508 7.77672V6.31641C3.01832 6.32793 3.07964 6.33939 3.14479 6.34897H3.14671C3.20995 6.35857 3.27318 6.37009 3.33834 6.37773Z" fill="#DC8744"/>
<path d="M4.48775 6.49455V7.95489C4.4226 7.95106 4.35936 7.94723 4.29612 7.94145H4.29421C4.22905 7.93762 4.16773 7.93185 4.10449 7.9261V6.46582C4.16773 6.47157 4.22905 6.47731 4.29421 6.48114H4.29612C4.35936 6.48689 4.42257 6.49072 4.48775 6.49455Z" fill="#DC8744"/>
<path d="M5.63814 6.52148V7.98179C5.5749 7.98371 5.51167 7.98371 5.44651 7.98371H5.4446C5.37944 7.98371 5.31812 7.98371 5.25488 7.98179V6.52148C5.31812 6.5234 5.37944 6.5234 5.4446 6.5234H5.44651C5.51167 6.5234 5.5749 6.5234 5.63814 6.52148Z" fill="#DC8744"/>
<path d="M6.78756 6.46582V7.9261C6.72432 7.93185 6.66105 7.93762 6.59593 7.94145H6.59401C6.53077 7.9472 6.46945 7.95106 6.4043 7.95489V6.49455C6.46945 6.49072 6.53077 6.48689 6.59401 6.48114H6.59593C6.66105 6.47731 6.72429 6.47159 6.78756 6.46582Z" fill="#DC8744"/>
<path d="M7.93795 6.31641V7.77672C7.87471 7.78821 7.81147 7.7997 7.74632 7.80931H7.7444C7.68116 7.81888 7.61984 7.83035 7.55469 7.83804V6.37773C7.61984 6.37007 7.68116 6.35857 7.7444 6.34897H7.74632C7.81147 6.33942 7.87471 6.32793 7.93795 6.31641Z" fill="#DC8744"/>
<path d="M9.08736 6.04395V7.50425C9.02412 7.52344 8.96086 7.54256 8.89573 7.56175H8.89382C8.83249 7.57898 8.76926 7.59622 8.7041 7.61349V6.15315C8.76926 6.13594 8.83249 6.11868 8.89382 6.10141H8.89573C8.96086 6.08228 9.0241 6.0631 9.08736 6.04395Z" fill="#DC8744"/>
<path d="M10.2368 5.54395V7.00808C10.1774 7.0445 10.1141 7.08281 10.0451 7.11732C10.0451 7.11732 10.0432 7.11732 10.0432 7.11923C9.98382 7.15182 9.92058 7.1825 9.85352 7.21506V5.75476C9.92058 5.72217 9.98382 5.69152 10.0432 5.65704C10.1122 5.62251 10.1755 5.5842 10.2368 5.54395Z" fill="#DC8744"/>
<path d="M13.0002 2.44775V3.90806C13.0002 4.22808 12.7645 4.52898 12.3467 4.79345C12.2873 4.82987 12.2241 4.86818 12.1551 4.90269C12.1551 4.90269 12.1532 4.90269 12.1532 4.9046C12.0938 4.93719 12.0306 4.96787 11.9635 5.00043C11.7393 5.10584 11.4805 5.20358 11.1969 5.28981C11.1337 5.30899 11.0704 5.32812 11.0053 5.3473H11.0034C10.942 5.36454 10.8788 5.38178 10.8137 5.39904C10.5722 5.46037 10.3173 5.51592 10.0471 5.56194C9.98384 5.57344 9.9206 5.58493 9.85544 5.59453H9.85353C9.79029 5.60411 9.72897 5.61558 9.66381 5.62327C9.41661 5.65966 9.16171 5.68845 8.89724 5.7114C8.834 5.71715 8.77076 5.72292 8.70561 5.72676H8.70369C8.64045 5.7325 8.57913 5.73636 8.51398 5.74019C8.26486 5.75549 8.00804 5.76509 7.7474 5.76701C7.68416 5.76892 7.62093 5.76892 7.55577 5.76892H7.55386C7.4887 5.76892 7.42738 5.76892 7.36414 5.76701C7.1035 5.76509 6.84672 5.75549 6.59757 5.74019C6.53241 5.73636 6.46917 5.73253 6.40594 5.72676H6.40402C6.33887 5.72292 6.27754 5.71715 6.21431 5.7114C5.94983 5.68842 5.69496 5.65966 5.44773 5.62327C5.38258 5.6156 5.31934 5.60411 5.2561 5.59453H5.25418C5.18903 5.58496 5.12771 5.57344 5.06447 5.56194C4.79425 5.51592 4.53938 5.46037 4.29789 5.39904C4.23274 5.38178 4.16759 5.36454 4.10626 5.3473H4.10435C4.0392 5.32812 3.97787 5.30899 3.91463 5.28981C3.63101 5.20358 3.37228 5.10584 3.14806 5.00043C3.08099 4.96979 3.01775 4.93719 2.95643 4.90269C2.95643 4.90269 2.95451 4.90269 2.95451 4.90077C2.88744 4.86821 2.82421 4.83182 2.7648 4.79348C2.34703 4.53092 2.10938 4.22811 2.10938 3.90809V2.44775H13.0002Z" fill="#F6C358"/>
<path d="M13.0003 2.44775C13.0003 2.7678 12.7645 3.06867 12.3468 3.32931C12.2854 3.36953 12.2222 3.40787 12.1532 3.4424C12.0938 3.47688 12.0306 3.50753 11.9635 3.54012C11.7393 3.64553 11.4805 3.74136 11.1969 3.8295C11.1337 3.84865 11.0704 3.86783 11.0053 3.88699H11.0034C10.942 3.90425 10.8788 3.92152 10.8136 3.93873C10.5722 4.00008 10.3173 4.05566 10.0471 4.10166C9.98383 4.11318 9.9206 4.12464 9.85544 4.13422H9.85353C9.79029 4.14383 9.72897 4.15532 9.66381 4.16298C9.41661 4.1994 9.16171 4.22813 8.89724 4.25115C8.834 4.25689 8.77076 4.26264 8.70561 4.26647H8.70369C8.64045 4.27219 8.57913 4.27605 8.51398 4.27988C8.26485 4.29523 8.00804 4.30481 7.7474 4.30672C7.68416 4.30864 7.62092 4.30864 7.55577 4.30864H7.55386C7.4887 4.30864 7.42738 4.30864 7.36414 4.30672C7.1035 4.30484 6.84671 4.29523 6.59757 4.27988C6.53241 4.27605 6.46917 4.27222 6.40594 4.26647H6.40402C6.33887 4.26264 6.27754 4.25689 6.2143 4.25115C5.94983 4.22813 5.69496 4.1994 5.44773 4.16298C5.38258 4.15532 5.31934 4.14383 5.2561 4.13422H5.25418C5.18903 4.12464 5.12771 4.11318 5.06447 4.10166C4.79425 4.05566 4.53938 4.00008 4.29789 3.93873C4.23274 3.92152 4.16759 3.90425 4.10626 3.88699H4.10435C4.03919 3.86786 3.97787 3.84868 3.91463 3.8295C3.63101 3.74324 3.37228 3.64553 3.14806 3.54012C3.08099 3.50945 3.01775 3.47688 2.95643 3.4424C2.95643 3.4424 2.95451 3.4424 2.95451 3.44049C2.88744 3.40787 2.82421 3.37148 2.7648 3.33317C2.34703 3.07061 2.10938 2.76783 2.10938 2.44778C2.10938 1.42059 4.54896 0.586914 7.55583 0.586914C10.5627 0.586914 13.0003 1.42056 13.0003 2.44775Z" fill="#FCD462"/>
<path d="M7.53828 3.78873C7.4842 3.78873 7.43265 3.78864 7.37968 3.78703C7.12748 3.78501 6.87905 3.77629 6.62904 3.76097C6.56802 3.75733 6.51031 3.75386 6.45265 3.74861L6.42911 3.7465H6.41945C6.3702 3.74337 6.32312 3.73898 6.27507 3.73465C5.99247 3.70994 5.75176 3.68226 5.52301 3.64865C5.47138 3.64229 5.43523 3.63629 5.39928 3.63055L5.29357 3.61431C5.25532 3.60812 5.15696 3.5901 5.15696 3.5901C4.90976 3.54804 4.67235 3.4976 4.42545 3.43478C4.36765 3.41954 4.30536 3.40305 4.24678 3.38653L4.06448 3.33185C3.84934 3.26641 3.65113 3.19432 3.47399 3.1172V3.11509L3.18403 2.97418L3.09212 2.92246H3.0884C3.07443 2.91416 3.06047 2.90545 3.04659 2.89648C2.73681 2.70182 2.62891 2.53373 2.62891 2.44782C2.62891 1.97514 4.49926 1.10693 7.55535 1.10693C10.6102 1.10693 12.4798 1.97511 12.4798 2.44782C12.4798 2.53329 12.3728 2.69994 12.0711 2.88826C12.0072 2.9299 11.9623 2.9563 11.9201 2.97746L11.892 2.99261C11.8437 3.02062 11.792 3.04516 11.7376 3.07167C11.5506 3.15954 11.3152 3.24815 11.0421 3.33304L10.8621 3.38653C10.8034 3.40305 10.7429 3.41954 10.6806 3.43595C10.4382 3.49757 10.2008 3.54802 9.95946 3.58905C9.90638 3.59871 9.85816 3.60751 9.80983 3.61511L9.70539 3.63119C9.67144 3.63677 9.6376 3.64243 9.60232 3.64659C9.35875 3.68232 9.11795 3.70989 8.85168 3.73309C8.79641 3.73817 8.74344 3.743 8.68925 3.74647L8.65608 3.74858C8.59845 3.75383 8.54251 3.7573 8.48316 3.76077C8.23162 3.77626 7.98322 3.78498 7.74301 3.78675C7.67827 3.78861 7.62383 3.7887 7.56884 3.7887C7.56443 3.78873 7.54325 3.78873 7.53828 3.78873Z" fill="#F6C358"/>
<path d="M3.14791 3.54143V5.00173C3.08084 4.97109 3.0176 4.9385 2.95628 4.90399C2.95628 4.90399 2.95436 4.90399 2.95436 4.90207C2.88729 4.86951 2.82406 4.83312 2.76465 4.79478V3.33447C2.82406 3.37278 2.88729 3.4092 2.95436 3.44179C2.95436 3.44371 2.95628 3.44371 2.95628 3.44371C3.0176 3.47819 3.08084 3.51078 3.14791 3.54143Z" fill="#DC8744"/>
<path d="M4.29732 3.93831V5.39865C4.23217 5.38138 4.16702 5.36414 4.10569 5.3469H4.10378C4.03862 5.32772 3.9773 5.30859 3.91406 5.28941V3.8291C3.9773 3.84826 4.03862 3.86744 4.10378 3.88659H4.10569C4.16702 3.90383 4.23217 3.9211 4.29732 3.93831Z" fill="#DC8744"/>
<path d="M5.44771 4.16289V5.62319C5.38256 5.61553 5.31932 5.60404 5.25608 5.59446H5.25417C5.18901 5.58488 5.12769 5.57336 5.06445 5.56187V4.10156C5.12769 4.11308 5.18901 4.12455 5.25417 4.13413H5.25608C5.31932 4.14373 5.38256 4.15525 5.44771 4.16289Z" fill="#DC8744"/>
<path d="M6.59713 8.27971V9.74004C6.53197 9.73621 6.46873 9.73238 6.4055 9.72661H6.40358C6.33843 9.72278 6.27711 9.717 6.21387 9.71126V8.25098C6.27711 8.25672 6.33843 8.26247 6.40358 8.2663H6.4055C6.46873 8.27205 6.53197 8.27588 6.59713 8.27971Z" fill="#DC8744"/>
<path d="M7.74752 8.30566V9.76597C7.68428 9.76789 7.62104 9.76789 7.55589 9.76789H7.55397C7.48882 9.76789 7.4275 9.76789 7.36426 9.76597V8.30566C7.4275 8.30758 7.48882 8.30758 7.55397 8.30758H7.55589C7.62104 8.30758 7.68428 8.30758 7.74752 8.30566Z" fill="#DC8744"/>
<path d="M8.89693 4.25098V5.71126C8.8337 5.717 8.77046 5.72278 8.7053 5.72661H8.70339C8.64015 5.73235 8.57883 5.73621 8.51367 5.74004V4.27971C8.57883 4.27588 8.64015 4.27205 8.70339 4.2663H8.7053C8.77043 4.26244 8.8337 4.25672 8.89693 4.25098Z" fill="#DC8744"/>
<path d="M10.0473 4.10156V5.56187C9.98408 5.57336 9.92084 5.58486 9.85569 5.59446H9.85378C9.79054 5.60404 9.72922 5.6155 9.66406 5.62319V4.16286C9.72922 4.1552 9.79054 4.1437 9.85378 4.1341H9.85569C9.92084 4.12455 9.98408 4.11306 10.0473 4.10156Z" fill="#DC8744"/>
<path d="M11.1967 3.8291V5.28941C11.1335 5.30859 11.0703 5.32772 11.0051 5.3469H11.0032C10.9419 5.36414 10.8786 5.38138 10.8135 5.39865V3.93831C10.8786 3.9211 10.9419 3.90383 11.0032 3.88657H11.0051C11.0702 3.86744 11.1335 3.84826 11.1967 3.8291Z" fill="#DC8744"/>
<path d="M12.3461 3.3291V4.79324C12.2867 4.82966 12.2235 4.86797 12.1545 4.90248C12.1545 4.90248 12.1526 4.90248 12.1526 4.90439C12.0932 4.93698 12.03 4.96766 11.9629 5.00022V3.53991C12.03 3.50732 12.0932 3.47668 12.1526 3.4422C12.2216 3.40764 12.2848 3.36933 12.3461 3.3291Z" fill="#DC8744"/>
</g>
<defs>
<clipPath id="clip0">
<rect width="13" height="13" fill="white"/>
</clipPath>
</defs>
</svg>
