<svg width="26" height="26" viewBox="0 0 26 26" fill="none" xmlns="http://www.w3.org/2000/svg">
<g clip-path="url(#clip0_347_2965)">
<path d="M25.665 20.6371L15.0002 2.95043C14.5801 2.25366 13.8136 1.8208 13 1.8208C12.1863 1.8208 11.4199 2.25366 10.9996 2.95048L0.334925 20.6371C-0.0993057 21.3573 -0.112153 22.2596 0.301358 22.9919C0.714972 23.7241 1.49426 24.179 2.3352 24.179H23.6647C24.5057 24.179 25.285 23.7241 25.6986 22.9918C26.1121 22.2595 26.0993 21.3572 25.665 20.6371ZM24.2247 22.1595C24.1108 22.361 23.8963 22.4863 23.6647 22.4863H2.3352C2.10369 22.4863 1.88914 22.3611 1.77533 22.1595C1.66148 21.9579 1.66504 21.7095 1.78453 21.5113L12.4494 3.82458C12.565 3.63278 12.776 3.51359 13 3.51359C13.224 3.51359 13.435 3.63278 13.5506 3.82458L24.2154 21.5113C24.335 21.7095 24.3385 21.9579 24.2247 22.1595Z" fill="#5897C5"/>
<path d="M13.0058 8.7854C12.3619 8.7854 11.8594 9.13092 11.8594 9.74344C11.8594 11.6123 12.0792 14.2978 12.0792 16.1667C12.0793 16.6535 12.5033 16.8577 13.0059 16.8577C13.3828 16.8577 13.9167 16.6535 13.9167 16.1667C13.9167 14.2979 14.1366 11.6123 14.1366 9.74344C14.1366 9.13097 13.6183 8.7854 13.0058 8.7854Z" fill="#5897C5"/>
<path d="M13.0218 17.9414C12.3308 17.9414 11.8125 18.4911 11.8125 19.1507C11.8125 19.7946 12.3308 20.36 13.0218 20.36C13.6657 20.36 14.2154 19.7946 14.2154 19.1507C14.2154 18.4911 13.6657 17.9414 13.0218 17.9414Z" fill="#5897C5"/>
</g>
<defs>
<clipPath id="clip0_347_2965">
<rect width="26" height="26" fill="white"/>
</clipPath>
</defs>
</svg>
