<svg width="101" height="101" viewBox="0 0 101 101" fill="none" xmlns="http://www.w3.org/2000/svg">
<path d="M50.5 101C78.3904 101 101 78.3904 101 50.5C101 22.6096 78.3904 0 50.5 0C22.6096 0 0 22.6096 0 50.5C0 78.3904 22.6096 101 50.5 101Z" fill="#ECEFF1"/>
<path d="M87.6807 80.0299C85.4839 78.2939 82.8074 77.0441 79.9037 76.4381L66.0604 73.6606C64.6085 73.3828 63.5606 72.0824 63.5606 70.5674V67.3922C64.4507 66.1424 65.2902 64.4822 66.1677 62.7462C66.8494 61.4017 67.8784 59.3754 68.3897 58.8514C71.1924 56.0361 73.9005 52.8735 74.74 48.7956C75.5228 44.9702 74.7527 42.9629 73.85 41.3469C73.85 37.3132 73.7237 32.2632 72.7705 28.5893C72.6569 23.6151 71.7542 20.8186 69.4817 18.3694C67.8784 16.6334 65.5175 16.2294 63.6174 15.9075C62.8725 15.7812 61.8436 15.6045 61.4649 15.4025C58.1003 13.5845 54.7736 12.6944 50.803 12.625C42.4895 12.9659 32.2695 18.2558 28.8482 27.6866C27.7877 30.5588 27.895 35.2743 27.9834 39.0618L27.9013 41.3406C27.087 42.9313 26.2853 44.9513 27.0744 48.7893C27.9076 52.8735 30.6157 56.0424 33.4689 58.8956C33.936 59.3754 34.9902 61.4206 35.6846 62.7715C36.5747 64.5011 37.4205 66.155 38.3106 67.3986V70.5738C38.3106 72.0824 37.2564 73.3828 35.7982 73.6669L21.9423 76.4444C19.0575 77.0567 16.381 78.2939 14.1905 80.0299C13.5088 80.5791 13.0795 81.3808 13.0101 82.2519C12.9407 83.123 13.231 83.9752 13.8181 84.6254C23.249 95.0284 36.7767 101 50.9356 101C65.0945 101 78.6285 95.0347 88.0531 84.6254C88.6402 83.9752 88.9369 83.1167 88.8611 82.2456C88.7917 81.3744 88.3624 80.5728 87.6807 80.0299Z" fill="#889BA5"/>
</svg>
