<svg width="18" height="18" viewBox="0 0 18 18" fill="none" xmlns="http://www.w3.org/2000/svg">
<path d="M12.1179 12.0439C11.9523 12.0439 11.8198 12.1691 11.8014 12.3347C11.6578 13.7556 10.4578 14.8636 8.99645 14.8636C7.53878 14.8636 6.33878 13.7556 6.19155 12.3347C6.17314 12.1728 6.04063 12.0439 5.87498 12.0439H2.04676C1.24431 12.0439 0.592773 12.6955 0.592773 13.4979V16.5458C0.592773 17.3482 1.24431 17.9998 2.04676 17.9998H15.9535C16.756 17.9998 17.4075 17.3482 17.4075 16.5458V13.5016C17.4075 12.6992 16.756 12.0476 15.9535 12.0476H12.1179V12.0439Z" fill="white"/>
<path d="M11.1714 7.31043L10.034 8.44785V1.03436C10.034 0.463804 9.57019 0 8.99964 0C8.42909 0 7.96529 0.463804 7.96529 1.03436V8.44785L6.82786 7.31043C6.47817 6.96074 5.91866 6.87239 5.50639 7.14847C4.9432 7.52393 4.88799 8.29325 5.34075 8.74601L8.3886 11.7939C8.72725 12.1325 9.27571 12.1325 9.61437 11.7939L12.6622 8.74601C13.115 8.29325 13.0598 7.52393 12.4966 7.14847C12.0806 6.86871 11.5211 6.95706 11.1714 7.31043Z" fill="white"/>
</svg>
