<svg width="18" height="18" viewBox="0 0 18 18" fill="none" xmlns="http://www.w3.org/2000/svg">
<g clip-path="url(#clip0)">
<path d="M14.25 9.03374C13.8352 9.03374 13.5 9.36978 13.5 9.78369V15.7837C13.5 16.197 13.164 16.5337 12.75 16.5337H2.25C1.83595 16.5337 1.50005 16.197 1.50005 15.7837V5.28369C1.50005 4.87047 1.83595 4.53374 2.25 4.53374H8.25005C8.66478 4.53374 9 4.19769 9 3.78378C9 3.36974 8.66478 3.03369 8.25005 3.03369H2.25C1.00951 3.03369 0 4.0432 0 5.28369V15.7837C0 17.0242 1.00951 18.0337 2.25 18.0337H12.75C13.9905 18.0337 15 17.0242 15 15.7837V9.78369C15 9.36896 14.6647 9.03374 14.25 9.03374Z" fill="#365969"/>
<path d="M7.03283 8.35098C6.98037 8.40344 6.94507 8.47018 6.93011 8.54214L6.39988 11.1942C6.37516 11.3172 6.41416 11.4439 6.5026 11.5332C6.57387 11.6044 6.66987 11.6426 6.76819 11.6426C6.79209 11.6426 6.81695 11.6404 6.84167 11.6352L9.49294 11.105C9.56641 11.0899 9.63315 11.0547 9.68493 11.0021L15.6189 5.06813L12.9676 2.41699L7.03283 8.35098Z" fill="#365969"/>
<path d="M17.4509 0.583614C16.7198 -0.147663 15.5302 -0.147663 14.7997 0.583614L13.7617 1.62155L16.413 4.27282L17.4509 3.23475C17.805 2.88154 18 2.4105 18 1.90953C18 1.40855 17.805 0.937511 17.4509 0.583614Z" fill="#365969"/>
</g>
<defs>
<clipPath id="clip0">
<rect width="18" height="18" fill="white"/>
</clipPath>
</defs>
</svg>
