<svg width="14" height="14" viewBox="0 0 14 14" fill="none" xmlns="http://www.w3.org/2000/svg">
<g clip-path="url(#clip0)">
<path d="M7.25305 11.0702C6.84596 11.0639 6.45348 10.9176 6.14169 10.6558L4.08854 8.8475C3.76546 8.54562 3.27141 8.52172 2.92068 8.791L0.00108406 10.9383V12.3322C-0.0198992 12.7061 0.26626 13.0262 0.640173 13.0472C0.659426 13.0483 0.678751 13.0485 0.698039 13.0479H11.0391C11.4535 13.0479 11.8679 12.7466 11.8679 12.3322V8.67797L8.15717 10.8253C7.88438 10.9893 7.57133 11.0741 7.25305 11.0702Z" fill="#365969"/>
<path d="M7.10224 7.41591C7.55998 7.41591 7.93105 7.04484 7.93105 6.58711C7.93105 6.12937 7.55998 5.7583 7.10224 5.7583C6.64451 5.7583 6.27344 6.12937 6.27344 6.58711C6.27344 7.04484 6.64451 7.41591 7.10224 7.41591Z" fill="#365969"/>
<path d="M13.8266 2.4244C13.7064 2.26057 13.5207 2.15739 13.3181 2.14185L3.0523 0.955175C2.85217 0.93841 2.65243 0.991661 2.48723 1.10588C2.34093 1.23293 2.24146 1.40538 2.20468 1.59563L2.03516 3.06486H11.0389C11.8973 3.08433 12.5914 3.77014 12.6212 4.62826V11.2774C12.6212 11.2398 12.7907 11.2021 12.866 11.1267C13.022 11.0043 13.1124 10.8165 13.1109 10.6182L13.9962 2.97065C14.0157 2.77311 13.9546 2.57608 13.8266 2.4244Z" fill="#365969"/>
<path d="M11.038 3.81836H0.696955C0.282553 3.81836 0 4.21391 0 4.62831V9.99664L2.48638 8.18836C3.11753 7.72017 3.99068 7.7595 4.57721 8.28254L6.64918 10.0908C6.96162 10.3561 7.40789 10.3939 7.7605 10.185L11.8668 7.79278V4.62831C11.8383 4.18611 11.4808 3.83671 11.038 3.81836ZM7.10126 8.16951C6.22742 8.16951 5.519 7.46112 5.519 6.58725C5.519 5.71342 6.22739 5.005 7.10126 5.005C7.97509 5.005 8.68351 5.71338 8.68351 6.58725C8.68351 7.46112 7.97513 8.16951 7.10126 8.16951Z" fill="#365969"/>
</g>
<defs>
<clipPath id="clip0">
<rect width="14" height="14" fill="white"/>
</clipPath>
</defs>
</svg>
