<svg width="24" height="24" viewBox="0 0 24 24" fill="none" xmlns="http://www.w3.org/2000/svg">
<path d="M20.4834 3.51662C15.795 -1.17183 8.20576 -1.17258 3.51664 3.51662C-1.17186 8.20508 -1.17257 15.7942 3.51664 20.4834C8.20501 25.1719 15.7943 25.1726 20.4834 20.4834C25.1719 15.7949 25.1725 8.20578 20.4834 3.51662ZM19.9819 18.7732C19.4214 18.2719 18.8218 17.8284 18.1898 17.4461C18.6075 16.0031 18.855 14.4152 18.9135 12.7645H22.4407C22.2813 14.9894 21.4264 17.0765 19.9819 18.7732ZM1.55924 12.7645H5.08647C5.14497 14.4152 5.39246 16.0031 5.81019 17.4461C5.17818 17.8284 4.57857 18.2719 4.01803 18.7732C2.57358 17.0765 1.71876 14.9894 1.55924 12.7645ZM4.01808 5.22682C4.57862 5.72807 5.17823 6.17166 5.81024 6.55394C5.3925 7.99694 5.14502 9.58485 5.08652 11.2355H1.55924C1.71876 9.01063 2.57358 6.92353 4.01808 5.22682ZM11.2355 6.71197C9.9886 6.62279 8.78635 6.31568 7.67177 5.80905C8.31999 4.13983 9.51499 2.1378 11.2355 1.64165V6.71197ZM11.2355 8.24391V11.2355H6.61621C6.66914 9.83922 6.86697 8.49842 7.196 7.27162C8.46261 7.82533 9.82481 8.156 11.2355 8.24391ZM11.2355 12.7645V15.7562C9.82481 15.8441 8.46261 16.1747 7.196 16.7284C6.86697 15.5016 6.66914 14.1608 6.61621 12.7645H11.2355ZM11.2355 17.2881V22.3584C9.51508 21.8622 8.32009 19.8604 7.67177 18.191C8.78635 17.6844 9.9886 17.3773 11.2355 17.2881ZM12.7645 17.2881C14.0114 17.3773 15.2137 17.6844 16.3282 18.191C15.68 19.8603 14.485 21.8622 12.7645 22.3584V17.2881ZM12.7645 15.7562V12.7645H17.3838C17.3309 14.1608 17.133 15.5016 16.804 16.7284C15.5374 16.1747 14.1752 15.8441 12.7645 15.7562ZM12.7645 11.2355V8.24391C14.1752 8.156 15.5374 7.82533 16.804 7.27162C17.133 8.49842 17.3309 9.83922 17.3838 11.2355H12.7645ZM12.7645 6.71197V1.6417C14.485 2.13784 15.68 4.13988 16.3282 5.8091C15.2137 6.31568 14.0114 6.62279 12.7645 6.71197ZM16.1986 2.405C17.1773 2.83356 18.0903 3.41466 18.9088 4.13567C18.5192 4.47917 18.1081 4.79063 17.6788 5.06917C17.2976 4.12531 16.8107 3.20806 16.1986 2.405ZM6.32114 5.06917C5.89188 4.79063 5.48084 4.47917 5.0912 4.13567C5.90968 3.41466 6.82271 2.83356 7.80137 2.405C7.18931 3.20816 6.70234 4.12541 6.32114 5.06917ZM6.32119 18.9309C6.70234 19.8747 7.1894 20.792 7.80142 21.5951C6.82276 21.1665 5.90972 20.5854 5.09125 19.8644C5.48084 19.5209 5.89193 19.2094 6.32119 18.9309ZM17.6788 18.9309C18.1081 19.2094 18.5192 19.5209 18.9088 19.8644C18.0903 20.5854 17.1773 21.1665 16.1986 21.595C16.8106 20.792 17.2976 19.8747 17.6788 18.9309ZM18.9135 11.2355C18.855 9.58489 18.6076 7.99694 18.1898 6.55399C18.8218 6.17171 19.4214 5.72812 19.982 5.22687C21.4264 6.92353 22.2813 9.01063 22.4408 11.2355H18.9135Z" fill="black"/>
</svg>
