<svg width="26" height="23" viewBox="0 0 26 23" fill="none" xmlns="http://www.w3.org/2000/svg">
<path d="M19.0938 0C17.6829 0 16.3894 0.447078 15.2493 1.32884C14.1562 2.1742 13.4284 3.25091 13 4.03386C12.5716 3.25086 11.8438 2.1742 10.7507 1.32884C9.61061 0.447078 8.31711 0 6.90625 0C2.96908 0 0 3.22039 0 7.49095C0 12.1046 3.70414 15.2612 9.31171 20.0399C10.264 20.8514 11.3433 21.7713 12.4652 22.7523C12.613 22.8818 12.803 22.9531 13 22.9531C13.197 22.9531 13.387 22.8818 13.5348 22.7524C14.6568 21.7712 15.7361 20.8514 16.6889 20.0394C22.2959 15.2612 26 12.1046 26 7.49095C26 3.22039 23.0309 0 19.0938 0Z" fill="white"/>
</svg>
