<svg width="54" height="44" viewBox="0 0 54 44" fill="none" xmlns="http://www.w3.org/2000/svg">
<path d="M42.1348 37.3788H5.53711C5.10026 37.3788 4.74609 37.733 4.74609 38.1698C4.74609 38.6067 5.10026 38.9608 5.53711 38.9608H42.1348C42.5716 38.9608 42.9258 38.6067 42.9258 38.1698C42.9258 37.733 42.5716 37.3788 42.1348 37.3788ZM42.1348 34.2147H5.53711C5.10026 34.2147 4.74609 34.5689 4.74609 35.0058C4.74609 35.4426 5.10026 35.7968 5.53711 35.7968H42.1348C42.5716 35.7968 42.9258 35.4426 42.9258 35.0058C42.9258 34.5689 42.5716 34.2147 42.1348 34.2147ZM46.8809 23.9054C46.444 23.9054 46.0898 24.2595 46.0898 24.6964V39.7519C46.0898 41.0604 45.0253 42.1249 43.7168 42.1249H3.95508C2.64653 42.1249 1.58203 41.0604 1.58203 39.7519V14.479C1.58203 13.1705 2.64653 12.106 3.95508 12.106H28.6712C29.108 12.106 29.4622 11.7518 29.4622 11.3149C29.4622 10.8781 29.108 10.5239 28.6712 10.5239H3.95508C1.7742 10.5239 0 12.2981 0 14.479V39.7519C0 41.9327 1.7742 43.7069 3.95508 43.7069H43.7168C45.8977 43.7069 47.6719 41.9327 47.6719 39.7519V24.6964C47.6719 24.2595 47.3177 23.9054 46.8809 23.9054ZM42.5222 0.293457C36.1932 0.293457 31.0442 5.44244 31.0442 11.7713C31.0442 12.9909 31.2362 14.1664 31.5901 15.27H26.1035C25.6667 15.27 25.3125 15.6242 25.3125 16.061C25.3125 16.4979 25.6667 16.8521 26.1035 16.8521H32.232C32.5066 17.406 32.8242 17.935 33.1812 18.4341H26.1035C25.6667 18.4341 25.3125 18.7882 25.3125 19.2251C25.3125 19.6619 25.6667 20.0161 26.1035 20.0161H34.5454C36.6122 22.0162 39.4257 23.2493 42.522 23.2493C48.8509 23.2493 53.9999 18.1003 53.9999 11.7713C54 5.44244 48.851 0.293457 42.5222 0.293457ZM42.5222 21.6672C37.0655 21.6672 32.6262 17.2279 32.6262 11.7713C32.6262 6.31477 37.0655 1.87549 42.5222 1.87549C47.9787 1.87549 52.418 6.31477 52.418 11.7713C52.418 17.2279 47.9787 21.6672 42.5222 21.6672ZM7.62697 32.4833C7.86807 32.5505 8.23658 32.6217 8.70117 32.6327H18.1538C20.1658 32.6721 22.1504 30.8747 22.1089 28.6776V19.2251C22.1089 17.0442 20.3347 15.27 18.1538 15.27H8.70117C6.52029 15.27 4.74609 17.0442 4.74609 19.2251V28.6776C4.74609 30.4861 5.96668 32.0139 7.62697 32.4833ZM8.79578 31.0507C9.4249 29.0705 11.2925 27.6576 13.4274 27.6576C15.5624 27.6576 17.4301 29.0705 18.0591 31.0507H8.79578ZM10.3976 23.0459C10.3976 21.3753 11.7568 20.0161 13.4274 20.0161C15.0981 20.0161 16.4572 21.3753 16.4572 23.0459C16.4572 24.7165 15.0981 26.0757 13.4274 26.0757C11.7568 26.0757 10.3976 24.7164 10.3976 23.0459ZM6.32812 19.2251C6.32812 17.9165 7.39262 16.8521 8.70117 16.8521H18.1538C19.4624 16.8521 20.5269 17.9165 20.5269 19.2251V28.6776C20.5269 29.4561 20.15 30.1481 19.5693 30.5811C19.0284 28.8719 17.7927 27.4808 16.215 26.7168C17.3225 25.8736 18.0393 24.5421 18.0393 23.0459C18.0393 20.503 15.9704 18.4341 13.4274 18.4341C10.8845 18.4341 8.81561 20.503 8.81561 23.0459C8.81561 24.5421 9.53227 25.8736 10.6399 26.7168C9.0623 27.4808 7.82663 28.8719 7.28568 30.5811C6.70497 30.1481 6.32812 29.4561 6.32812 28.6776V19.2251ZM46.4695 8.99452L40.982 14.4821C40.9052 14.5587 40.7807 14.5587 40.7039 14.4821L38.5747 12.3529C38.2658 12.0439 37.7649 12.0439 37.4561 12.3529C37.1471 12.6618 37.1471 13.1626 37.4561 13.4715L39.5853 15.6007C39.932 15.9474 40.3875 16.1208 40.843 16.1208C41.2985 16.1208 41.7539 15.9474 42.1007 15.6007L47.5882 10.1131C47.8972 9.80421 47.8972 9.30334 47.5882 8.99452C47.2792 8.68561 46.7783 8.68561 46.4695 8.99452ZM42.1348 27.8866H26.1035C25.6667 27.8866 25.3125 28.2408 25.3125 28.6776C25.3125 29.1145 25.6667 29.4686 26.1035 29.4686H42.1348C42.5716 29.4686 42.9258 29.1145 42.9258 28.6776C42.9258 28.2408 42.5716 27.8866 42.1348 27.8866ZM42.1348 31.0507H26.1035C25.6667 31.0507 25.3125 31.4048 25.3125 31.8417C25.3125 32.2785 25.6667 32.6327 26.1035 32.6327H42.1348C42.5716 32.6327 42.9258 32.2785 42.9258 31.8417C42.9258 31.4048 42.5716 31.0507 42.1348 31.0507Z" fill="#9F9F9F"/>
</svg>
