<svg width="25" height="18" viewBox="0 0 25 18" fill="none" xmlns="http://www.w3.org/2000/svg">
<path d="M21.7857 0H2.61428C1.17045 0 0 1.17045 0 2.61428V14.8143C0 16.2581 1.17045 17.4285 2.61428 17.4285H21.7857C23.2295 17.4285 24.4 16.2581 24.4 14.8143V2.61428C24.4 1.17045 23.2295 0 21.7857 0ZM22.6571 14.8143C22.6571 15.2955 22.2669 15.6857 21.7857 15.6857H2.61428C2.13299 15.6857 1.74284 15.2955 1.74284 14.8143V14.3036L5.22857 10.8179L8.0982 13.6875C8.43847 14.0277 8.99012 14.0277 9.33039 13.6875L16.5571 6.46075L22.6572 12.5608V14.8143H22.6571ZM22.6571 10.0963L17.1732 4.61247C16.833 4.27226 16.2813 4.27226 15.941 4.61247L8.71429 11.8392L5.84466 8.96954C5.50439 8.62933 4.95274 8.62933 4.61247 8.96954L1.74284 11.8392V2.61428C1.74284 2.13299 2.13299 1.74284 2.61428 1.74284H21.7857C22.267 1.74284 22.6572 2.13299 22.6572 2.61428V10.0963H22.6571Z" fill="#365969"/>
<path d="M7.84182 3.48633C6.39799 3.48633 5.22754 4.65678 5.22754 6.10061C5.22754 7.54444 6.39799 8.71489 7.84182 8.71489C9.28565 8.71489 10.4561 7.54444 10.4561 6.10061C10.4561 4.65678 9.28565 3.48633 7.84182 3.48633ZM7.84182 6.97206C7.36053 6.97206 6.97038 6.5819 6.97038 6.10061C6.97038 5.61932 7.36053 5.22917 7.84182 5.22917C8.32312 5.22917 8.71327 5.61932 8.71327 6.10061C8.71327 6.5819 8.32312 6.97206 7.84182 6.97206Z" fill="#365969"/>
</svg>
