<svg width="27" height="27" viewBox="0 0 27 27" fill="none" xmlns="http://www.w3.org/2000/svg">
<path d="M27 1.13141L25.8852 0.0102539L22.8366 3.04161L12.9532 1.89458L0 14.8309L12.1431 26.9898L25.0963 14.0535L23.9605 4.15376L27 1.13141ZM23.4385 13.4748L12.1446 24.7539L2.23594 14.8323L13.5298 3.55313L21.4033 4.46691L19.82 6.04124C19.5377 5.91576 19.2299 5.84915 18.9117 5.84915C18.3147 5.84915 17.7533 6.08145 17.3309 6.50332C16.4581 7.37494 16.4571 8.79418 17.3288 9.66696C17.7515 10.0901 18.3136 10.3232 18.9117 10.3232C19.5087 10.3232 20.07 10.0909 20.4925 9.66901C21.1723 8.99007 21.323 7.979 20.9446 7.15265L22.532 5.57415L23.4385 13.4748ZM19.3752 8.55033C19.2514 8.67402 19.0867 8.74216 18.9117 8.74216C18.7362 8.74216 18.5714 8.67381 18.4475 8.54975C18.1919 8.29384 18.1921 7.8776 18.4481 7.622C18.572 7.49826 18.7366 7.43017 18.9117 7.43017C19.0871 7.43017 19.2519 7.49853 19.3759 7.62258C19.6315 7.8785 19.6311 8.29473 19.3752 8.55033Z" fill="#666666"/>
</svg>
