<svg width="27" height="27" viewBox="0 0 27 27" xmlns="http://www.w3.org/2000/svg">
<g clip-path="url(#clip0)">
<path d="M15.8643 10.2451L15.1598 10.9496C14.3101 10.5074 13.2722 10.6696 12.562 11.3799C12.0935 11.8484 11.8919 12.3497 11.928 12.9621C11.9676 13.4926 12.0549 13.8551 12.3 14.5086C12.6542 15.5069 12.6637 15.9539 12.3376 16.2801C12.1304 16.4873 11.9044 16.6048 11.6658 16.6294C11.3673 16.6524 11.1088 16.5438 10.8528 16.2878C10.3682 15.8031 10.3839 15.2473 10.9089 14.3052L11.0947 13.972L9.58018 13.5995L9.46713 13.7713C8.84036 14.7236 8.79757 15.8518 9.33812 16.7715L8.64062 17.469L9.67161 18.5L10.3749 17.7967C10.7854 18.0415 11.2395 18.1539 11.7269 18.1315C12.3802 18.1054 12.9586 17.845 13.4461 17.3575L13.4547 17.3485C14.0039 16.7501 14.1903 16.167 14.0783 15.401C14.0119 14.92 13.9344 14.6753 13.7809 14.2149L13.5807 13.5831C13.548 13.4717 13.5201 13.3207 13.4848 13.1299L13.4816 13.1126C13.439 12.7654 13.533 12.5949 13.7093 12.4186C13.9714 12.1565 14.384 12.1426 14.629 12.3876C14.8968 12.6553 15.0086 12.9187 14.8332 13.5428L14.7493 13.8414L16.2147 14.1546L16.296 13.9054C16.5274 13.1958 16.49 12.5514 16.1853 11.9861L16.8954 11.2761L15.8643 10.2451Z" fill=""/>
<path d="M27 1.13141L25.8852 0.0102539L22.8366 3.04161L12.9532 1.89458L0 14.8309L12.1431 26.9898L25.0963 14.0535L23.9605 4.15376L27 1.13141ZM23.4385 13.4748L12.1446 24.7539L2.23594 14.8323L13.5298 3.55313L21.4033 4.46691L19.82 6.04124C19.5377 5.91576 19.2299 5.84915 18.9117 5.84915C18.3147 5.84915 17.7533 6.08145 17.3309 6.50332C16.4581 7.37494 16.4571 8.79418 17.3288 9.66696C17.7515 10.0901 18.3136 10.3232 18.9117 10.3232C19.5087 10.3232 20.07 10.0909 20.4925 9.66901C21.1723 8.99007 21.323 7.979 20.9446 7.15265L22.532 5.57415L23.4385 13.4748ZM19.3752 8.55033C19.2514 8.67402 19.0867 8.74216 18.9117 8.74216C18.7362 8.74216 18.5714 8.67381 18.4475 8.54975C18.1919 8.29384 18.1921 7.8776 18.4481 7.622C18.572 7.49826 18.7366 7.43017 18.9117 7.43017C19.0871 7.43017 19.2519 7.49853 19.3759 7.62258C19.6315 7.8785 19.6311 8.29473 19.3752 8.55033Z" fill=""/>
</g>
<defs>
<clipPath id="clip0">
<rect width="27" height="27" fill=""/>
</clipPath>
</defs>
</svg>
