<svg width="20" height="20" viewBox="0 0 20 20" fill="none" xmlns="http://www.w3.org/2000/svg">
<path d="M17.8564 0H8.57063C7.38716 0 6.42778 0.959388 6.42778 2.14286V6.42857C6.42778 6.82307 6.74757 7.14287 7.14208 7.14287C7.53658 7.14287 7.85637 6.82307 7.85637 6.42857V2.14286C7.85637 1.74835 8.17617 1.42856 8.57067 1.42856H17.8564C18.2509 1.42856 18.5707 1.74835 18.5707 2.14286V17.8571C18.5707 18.2516 18.2509 18.5714 17.8564 18.5714H8.57063C8.17613 18.5714 7.85633 18.2516 7.85633 17.8571V13.5714C7.85633 13.1769 7.53654 12.8571 7.14203 12.8571C6.74753 12.8571 6.42773 13.1769 6.42773 13.5714V17.8571C6.42773 19.0406 7.38712 20 8.57059 20H17.8563C19.0398 20 19.9992 19.0406 19.9992 17.8571V2.14286C19.9992 0.959388 19.0398 0 17.8564 0Z" fill="#365969"/>
<path d="M14.2848 9.28578H2.43773L4.78989 6.93362C5.06394 6.64986 5.05607 6.19768 4.77231 5.92363C4.4955 5.65632 4.05667 5.65632 3.7799 5.92363L0.208447 9.49504C0.142111 9.56142 0.0896693 9.64031 0.0541783 9.7272C-0.0180594 9.90193 -0.0180594 10.0982 0.0541783 10.2729C0.0898367 10.3601 0.142529 10.4392 0.209159 10.5058L3.78057 14.0772C4.05462 14.361 4.5068 14.3688 4.79056 14.0948C5.07432 13.8207 5.08219 13.3685 4.80814 13.0848C4.8024 13.0788 4.79654 13.073 4.79056 13.0672L2.43773 10.7143H14.2849C14.6794 10.7143 14.9992 10.3945 14.9992 10C14.9992 9.60553 14.6793 9.28578 14.2848 9.28578Z" fill="#365969"/>
</svg>
