<svg width="104" height="28" viewBox="0 0 104 28" fill="none" xmlns="http://www.w3.org/2000/svg">
<path d="M7.23818 0.0586266L7.71159 0.0140004C11.0781 -0.0256674 12.7661 0.0189589 12.7757 0.147879C13.4929 0.385886 13.9998 0.742895 14.2963 1.21891C14.4589 1.45692 14.545 1.69492 14.5545 1.93293L14.5689 2.12631C14.6167 2.85024 14.0763 3.41055 12.9478 3.80723C12.6035 3.91632 12.2592 3.98573 11.9149 4.01549L11.628 4.03036L8.80187 4.13449H8.77318C8.11327 4.18407 7.67812 4.63034 7.46771 5.47328C7.286 6.20713 7.11385 7.08974 6.95126 8.1211H6.97996L9.14617 7.94259C11.3267 7.78392 12.5653 7.92276 12.8617 8.35911C13.3112 8.80537 13.5503 9.22684 13.579 9.62351L13.5934 9.75739C13.6412 10.5607 13.0482 11.2003 11.8145 11.6763C11.5084 11.7854 11.145 11.8548 10.7242 11.8846L8.58668 12.0333L6.39178 12.1672C5.92315 13.8432 5.43539 16.6893 4.92851 20.7057C4.57464 23.3238 4.19209 25.1435 3.78084 26.165C3.24527 27.3253 2.64274 27.9302 1.97327 27.9798L1.74374 27.9946C0.930811 28.0541 0.376107 27.6178 0.0796272 26.6856L0.022244 26.2691L0.00789825 25.9716C-0.0590488 24.97 0.299596 23.0659 1.08383 20.2594C1.61941 17.4629 2.12151 14.2399 2.59014 10.5904C3.72824 5.77078 4.28773 3.2023 4.2686 2.88495C4.33555 2.10152 4.49813 1.53129 4.75636 1.17428C5.27281 0.509847 6.10008 0.137962 7.23818 0.0586266Z" fill="#E79166"/>
<path d="M29.4765 6.70793H29.6773C30.2703 6.70793 30.6672 7.0699 30.868 7.79384L30.9254 8.28473V8.67149C30.9254 9.69293 30.5094 11.4185 29.6773 13.8481C28.7974 17.3786 28.3575 19.9123 28.3575 21.4495C28.3766 22.0544 28.477 22.3569 28.6587 22.3569C29.7873 22.9221 30.3516 23.4626 30.3516 23.9783C30.3994 23.9783 30.4233 24.1419 30.4233 24.4692C30.4233 25.6295 29.8447 26.3831 28.6874 26.7302L28.0132 26.8046H27.8697C26.9229 26.8046 26.1004 26.2988 25.4023 25.2873C25.2014 25.1187 25.0532 25.0344 24.9575 25.0344H24.8858C24.7615 25.0344 24.4793 25.2824 24.0394 25.7782C22.2988 27.0872 20.716 27.7418 19.2909 27.7418H18.918C17.0817 27.7418 15.891 26.4674 15.3458 23.9188C15.2598 23.3138 15.2167 22.7734 15.2167 22.2974V21.4792C15.2167 19.5157 15.7045 17.3686 16.68 15.0382C17.206 13.8878 18.0189 12.6829 19.1188 11.4234C20.649 9.88631 21.9736 8.80537 23.0926 8.1806C24.0777 7.42691 25.3449 7.05007 26.8942 7.05007L29.4765 6.70793ZM19.3053 22.0891C19.3053 22.466 19.3722 22.9023 19.5061 23.3981C20.3095 23.3981 21.768 21.385 23.8816 17.3587C25.4596 14.0465 26.2487 11.949 26.2487 11.0664H26.2056C24.0442 12.0185 22.1027 14.2994 20.3812 17.9091C19.6639 19.4661 19.3053 20.8594 19.3053 22.0891Z" fill="#E79166"/>
<path d="M35.8483 6.45505H36.0491C36.8908 6.45505 37.4646 7.14428 37.7706 8.52273L37.8424 9.45988C37.8424 9.9954 37.785 10.5408 37.6702 11.0962C38.1484 10.5408 38.5883 9.8764 38.99 9.10288C39.9655 7.52608 40.9841 6.73769 42.0457 6.73769C42.9638 6.73769 43.6094 7.26328 43.9824 8.31448C44.0493 8.54257 44.0828 8.84999 44.0828 9.23675V10.6053C44.0828 11.1309 43.9441 13.4267 43.6667 17.4926L43.6381 18.5785L43.7385 22.1784C43.7385 25.7782 43.0499 27.5781 41.6727 27.5781C40.3624 27.5781 39.583 26.4327 39.3343 24.1419L39.2196 22.4312L39.4347 17.5372C39.0617 18.0331 38.6935 18.8314 38.3301 19.9322C37.1824 23.6114 36.4365 25.8377 36.0922 26.6112C35.7001 27.2558 35.1932 27.5781 34.5715 27.5781H34.3707C33.5099 27.5781 32.8405 27.0674 32.3623 26.046C32.2953 25.8377 32.2618 25.5997 32.2618 25.3319V24.7964C32.2618 24.0328 32.4244 21.4941 32.7496 17.1802C33.18 13.9473 33.5099 11.1606 33.7395 8.82024C34.0072 7.83847 34.4328 7.14428 35.0162 6.73769C35.3127 6.54926 35.5901 6.45505 35.8483 6.45505Z" fill="#E79166"/>
<path d="M55.7625 0.832148L56.1929 0.861899C57.6179 0.980902 58.7226 1.79409 59.5068 3.30147C60.1763 4.76917 60.4441 6.35092 60.3102 8.04672L60.2528 8.82024C60.0711 11.1408 59.306 13.2531 57.9575 15.1572C56.762 16.5356 55.3417 17.1554 53.6968 17.0166C53.142 16.9769 52.3196 16.7637 51.2293 16.3769C51.0763 16.367 50.9519 16.7092 50.8563 17.4034C49.919 22.1536 49.2352 25.2229 48.8048 26.6112C48.6805 26.9484 48.4605 27.2013 48.1449 27.3699C47.858 27.5087 47.5998 27.5732 47.3703 27.5633L47.1407 27.5335C46.3278 27.474 45.7731 26.9187 45.4766 25.8675V25.5551L45.5053 25.1832C45.5914 24.1221 46.3421 20.547 47.7576 14.458C48.6949 9.42022 49.5652 5.48815 50.3685 2.66182C50.6554 1.93789 51.0763 1.45196 51.631 1.20403C51.8796 1.1247 52.0613 1.08999 52.1761 1.09991L53.0942 1.32304C53.3429 1.35279 53.8354 1.22883 54.5718 0.951151C54.964 0.842065 55.3609 0.802397 55.7625 0.832148ZM52.1618 11.1557L52.1331 11.3788C52.0948 11.8647 52.4056 12.306 53.0655 12.7027C53.3333 12.9804 53.582 13.1391 53.8115 13.1787L54.0267 13.1936C54.6197 13.2432 55.2413 12.6135 55.8917 11.3044C56.3316 10.283 56.5898 9.27146 56.6663 8.26985C56.7907 6.72281 56.4846 5.49807 55.7482 4.59563C54.7822 4.83363 54.0697 5.17081 53.6107 5.60715C53.4959 5.59724 53.2903 6.29142 52.9938 7.68971C52.4869 9.32601 52.2096 10.4813 52.1618 11.1557Z" fill="#E79166"/>
<path d="M66.6533 6.78231H66.8972C67.6145 6.78231 68.1453 7.22362 68.4896 8.10622L68.5183 8.32935C68.5183 9.09296 67.8297 12.1573 66.4525 17.5224L66.2516 18.9058L66.2803 19.114H66.3807C66.7824 18.876 67.8679 16.6249 69.6372 12.3606C70.0198 11.4978 70.4932 10.2681 71.0575 8.67149C71.5357 7.70955 72.1573 7.22857 72.9224 7.22857C73.764 7.22857 74.4096 7.54592 74.8591 8.1806C74.993 8.46819 75.0599 8.72603 75.0599 8.95412V9.2665C74.5531 12.2713 74.0223 14.6266 73.4676 16.3323C73.2285 17.4728 72.9368 20.1553 72.5925 24.3799C72.4968 25.1039 72.339 25.7733 72.119 26.3881C71.66 27.1815 71.0383 27.5781 70.2541 27.5781H70.0819C69.2595 27.5781 68.7048 26.8889 68.4178 25.5105C68.3509 25.1237 68.3174 24.7221 68.3174 24.3055H68.2457C68.1022 24.3948 67.4949 25.0741 66.4238 26.3435C65.6778 26.998 64.9988 27.3253 64.3867 27.3253H64.3149C62.9856 27.3253 62.1631 26.6261 61.8475 25.2278C61.7901 25.2278 61.7327 24.7468 61.6753 23.7849V22.9073C61.6753 20.7553 62.1726 17.4034 63.1673 12.8515C63.7794 10.4317 64.3102 8.78057 64.7597 7.89797C65.3239 7.1542 65.9551 6.78231 66.6533 6.78231Z" fill="#E79166"/>
<path d="M82.1491 6.14267L82.6225 6.06829C84.1336 5.8402 85.616 6.45009 87.0697 7.89797C87.6913 8.67149 88.0452 9.38055 88.1312 10.0252L88.1886 10.4119C88.2843 11.1061 87.9878 11.7011 87.2992 12.197C86.9358 12.4052 86.601 12.5341 86.295 12.5837C85.5586 12.6928 84.8987 12.1623 84.3153 10.9921C83.9136 10.3177 83.4736 10.0152 82.9955 10.0847C82.5173 10.1541 82.2112 10.5458 82.0773 11.2598L82.0917 11.5871L82.106 11.6912C82.1634 12.1176 82.6846 12.6581 83.6697 13.3126C85.8025 15.0679 86.9597 16.1637 87.1414 16.6001C87.7917 17.4331 88.1839 18.3256 88.3177 19.2777L88.3464 19.471C88.5855 21.2065 88.1265 23.0362 86.9692 24.9601C85.8694 26.4972 84.6357 27.3649 83.268 27.5633L82.9524 27.6079C81.3648 27.8459 79.8442 27.2459 78.3905 25.808C77.3767 24.5683 76.7885 23.3783 76.6259 22.2379L76.5685 21.8065C76.3773 20.4181 76.8602 19.2826 78.0175 18.4C78.2852 18.2017 78.5913 18.0777 78.9356 18.0281C79.8537 17.8893 80.5806 18.2959 81.1162 19.2479L81.1879 19.5603L81.2309 19.8578C81.2787 20.2049 81.0731 20.7404 80.6141 21.4643C80.5567 21.6627 80.5328 21.8263 80.5423 21.9552C80.6093 22.4213 81.0253 22.9172 81.7904 23.4428C82.0582 23.5221 82.2351 23.5519 82.3212 23.532L82.6368 23.4874C83.1054 23.418 83.6075 22.9519 84.1431 22.0891C84.3727 21.4247 84.4492 20.8297 84.3727 20.3041L84.3583 20.1702C84.2148 19.1388 83.6601 18.2711 82.6942 17.567L80.0833 15.5886C78.993 14.7059 78.3522 13.5903 78.1609 12.2416C77.941 10.645 78.4191 9.09792 79.5955 7.60046C80.4371 6.75752 81.2883 6.27159 82.1491 6.14267Z" fill="#E79166"/>
<path d="M97.8313 0.742895H98.0752C98.6203 0.742895 98.9694 1.21891 99.1224 2.17093L99.1511 2.78083C99.1511 3.63368 98.7925 5.23031 98.0752 7.57071C97.4822 9.92102 96.9132 11.8945 96.368 13.4911L96.1815 14.3836L96.2389 14.5473C96.4302 14.4779 96.8271 13.987 97.4296 13.0746C98.5295 11.597 99.6341 10.5061 100.743 9.80202C101.231 9.57393 101.59 9.45988 101.819 9.45988H101.949C102.886 9.45988 103.517 9.91111 103.842 10.8135C103.947 11.2201 104 11.5524 104 11.8102V12.316C104 13.6349 103.445 16.0596 102.336 19.59C102.173 20.1156 101.848 21.8759 101.36 24.8708C101.15 25.9914 100.954 26.6063 100.772 26.7154C100.323 27.2509 99.8541 27.5186 99.3663 27.5186H99.0937C98.5582 27.5186 98.0895 27.1269 97.6878 26.3435C97.5826 26.0162 97.53 25.7187 97.53 25.4509V25.0939C97.53 24.5287 97.8983 22.5502 98.6347 19.1587L98.7494 18.1917L98.7207 18.043H98.6921C98.4721 18.0727 98.123 18.4744 97.6448 19.2479C97.2144 19.8925 95.6747 22.342 93.0255 26.5964C92.5473 27.2509 92.0452 27.5781 91.5192 27.5781H91.3327C90.6536 27.5781 90.1515 27.0377 89.8263 25.9567L89.769 25.2873V25.0344C89.769 24.5386 90.0463 23.2444 90.601 21.152C91.5574 17.0959 92.4038 13.7886 93.1402 11.2301C94.2783 6.12284 95.3399 2.89983 96.325 1.56104C96.7649 1.01561 97.267 0.742895 97.8313 0.742895Z" fill="#E79166"/>
</svg>
