<svg width="128" height="34" viewBox="0 0 128 34" fill="none" xmlns="http://www.w3.org/2000/svg">
<path d="M8.89453 0.480469L9.47461 0.427734C13.5996 0.380859 15.668 0.433594 15.6797 0.585938C16.5586 0.867188 17.1797 1.28906 17.543 1.85156C17.7422 2.13281 17.8477 2.41406 17.8594 2.69531L17.877 2.92383C17.9355 3.7793 17.2734 4.44141 15.8906 4.91016C15.4688 5.03906 15.0469 5.12109 14.625 5.15625L14.2734 5.17383L10.8105 5.29688H10.7754C9.9668 5.35547 9.43359 5.88281 9.17578 6.87891C8.95312 7.74609 8.74219 8.78906 8.54297 10.0078H8.57812L11.2324 9.79688C13.9043 9.60937 15.4219 9.77344 15.7852 10.2891C16.3359 10.8164 16.6289 11.3145 16.6641 11.7832L16.6816 11.9414C16.7402 12.8906 16.0137 13.6465 14.502 14.209C14.127 14.3379 13.6816 14.4199 13.166 14.4551L10.5469 14.6309L7.85742 14.7891C7.2832 16.7695 6.68555 20.1328 6.06445 24.8789C5.63086 27.9727 5.16211 30.123 4.6582 31.3301C4.00195 32.7012 3.26367 33.416 2.44336 33.4746L2.16211 33.4922C1.16602 33.5625 0.486328 33.0469 0.123047 31.9453L0.0527344 31.4531L0.0351562 31.1016C-0.046875 29.918 0.392578 27.668 1.35352 24.3516C2.00977 21.0469 2.625 17.2383 3.19922 12.9258C4.59375 7.23047 5.2793 4.19531 5.25586 3.82031C5.33789 2.89453 5.53711 2.2207 5.85352 1.79883C6.48633 1.01367 7.5 0.574219 8.89453 0.480469ZM36.1434 8.33789H36.3895C37.1161 8.33789 37.6024 8.76562 37.8485 9.62109L37.9188 10.2012V10.6582C37.9188 11.8652 37.4091 13.9043 36.3895 16.7754C35.3114 20.9473 34.7723 23.9414 34.7723 25.7578C34.7958 26.4727 34.9188 26.8301 35.1415 26.8301C36.5243 27.498 37.2157 28.1367 37.2157 28.7461C37.2743 28.7461 37.3036 28.9395 37.3036 29.3262C37.3036 30.6973 36.5946 31.5879 35.1766 31.998L34.3505 32.0859H34.1747C33.0145 32.0859 32.0067 31.4883 31.1513 30.293C30.9052 30.0938 30.7235 29.9941 30.6063 29.9941H30.5184C30.3661 29.9941 30.0204 30.2871 29.4813 30.873C27.3485 32.4199 25.4091 33.1934 23.663 33.1934H23.2059C20.9559 33.1934 19.497 31.6875 18.829 28.6758C18.7235 27.9609 18.6708 27.3223 18.6708 26.7598V25.793C18.6708 23.4727 19.2684 20.9355 20.4638 18.1816C21.1083 16.8223 22.1044 15.3984 23.452 13.9102C25.327 12.0938 26.9501 10.8164 28.3212 10.0781C29.5282 9.1875 31.0809 8.74219 32.9794 8.74219L36.1434 8.33789ZM23.6805 26.5137C23.6805 26.959 23.7626 27.4746 23.9266 28.0605C24.911 28.0605 26.6981 25.6816 29.288 20.9238C31.2216 17.0098 32.1884 14.5312 32.1884 13.4883H32.1356C29.4872 14.6133 27.1083 17.3086 24.9989 21.5742C24.12 23.4141 23.6805 25.0605 23.6805 26.5137ZM43.9509 8.03906H44.197C45.2283 8.03906 45.9314 8.85352 46.3064 10.4824L46.3943 11.5898C46.3943 12.2227 46.324 12.8672 46.1834 13.5234C46.7693 12.8672 47.3084 12.082 47.8005 11.168C48.9959 9.30469 50.2439 8.37305 51.5447 8.37305C52.6697 8.37305 53.4607 8.99414 53.9177 10.2363C53.9998 10.5059 54.0408 10.8691 54.0408 11.3262V12.9434C54.0408 13.5645 53.8709 16.2773 53.531 21.082L53.4959 22.3652L53.6189 26.6191C53.6189 30.873 52.7752 33 51.0877 33C49.4822 33 48.5271 31.6465 48.2224 28.9395L48.0818 26.918L48.3455 21.1348C47.8884 21.7207 47.4373 22.6641 46.992 23.9648C45.5857 28.3125 44.6716 30.9434 44.2498 31.8574C43.7693 32.6191 43.1482 33 42.3865 33H42.1404C41.0857 33 40.2654 32.3965 39.6795 31.1895C39.5974 30.9434 39.5564 30.6621 39.5564 30.3457V29.7129C39.5564 28.8105 39.7556 25.8105 40.1541 20.7129C40.6814 16.8926 41.0857 13.5996 41.367 10.834C41.6951 9.67383 42.2166 8.85352 42.9314 8.37305C43.2947 8.15039 43.6345 8.03906 43.9509 8.03906ZM68.3522 1.39453L68.8795 1.42969C70.6256 1.57031 71.9791 2.53125 72.9401 4.3125C73.7604 6.04688 74.0885 7.91602 73.9245 9.91992L73.8541 10.834C73.6315 13.5762 72.694 16.0723 71.0416 18.3223C69.5768 19.9512 67.8366 20.6836 65.8209 20.5195C65.1413 20.4727 64.1334 20.2207 62.7975 19.7637C62.61 19.752 62.4577 20.1562 62.3405 20.9766C61.192 26.5898 60.3541 30.2168 59.8268 31.8574C59.6745 32.2559 59.4049 32.5547 59.0182 32.7539C58.6666 32.918 58.3502 32.9941 58.069 32.9824L57.7877 32.9473C56.7916 32.877 56.112 32.2207 55.7487 30.9785V30.6094L55.7838 30.1699C55.8893 28.916 56.8092 24.6914 58.5436 17.4961C59.692 11.543 60.7584 6.89648 61.7428 3.55664C62.0944 2.70117 62.61 2.12695 63.2897 1.83398C63.5944 1.74023 63.817 1.69922 63.9577 1.71094L65.0827 1.97461C65.3873 2.00977 65.9909 1.86328 66.8932 1.53516C67.3737 1.40625 67.86 1.35938 68.3522 1.39453ZM63.9401 13.5938L63.9049 13.8574C63.858 14.4316 64.2389 14.9531 65.0475 15.4219C65.3756 15.75 65.6803 15.9375 65.9616 15.9844L66.2252 16.002C66.9518 16.0605 67.7135 15.3164 68.5104 13.7695C69.0495 12.5625 69.3659 11.3672 69.4596 10.1836C69.612 8.35547 69.237 6.9082 68.3346 5.8418C67.151 6.12305 66.278 6.52148 65.7155 7.03711C65.5748 7.02539 65.3229 7.8457 64.9596 9.49805C64.3385 11.4316 63.9987 12.7969 63.9401 13.5938ZM81.6968 8.42578H81.9956C82.8745 8.42578 83.5249 8.94727 83.9468 9.99023L83.982 10.2539C83.982 11.1562 83.1382 14.7773 81.4507 21.1172L81.2046 22.752L81.2398 22.998H81.3628C81.855 22.7168 83.1851 20.0566 85.3531 15.0176C85.8218 13.998 86.4019 12.5449 87.0933 10.6582C87.6792 9.52148 88.4409 8.95312 89.3784 8.95312C90.4097 8.95312 91.2007 9.32812 91.7515 10.0781C91.9156 10.418 91.9976 10.7227 91.9976 10.9922V11.3613C91.3765 14.9121 90.7261 17.6953 90.0464 19.7109C89.7534 21.0586 89.396 24.2285 88.9741 29.2207C88.857 30.0762 88.6636 30.8672 88.3941 31.5938C87.8316 32.5312 87.0698 33 86.1089 33H85.898C84.8902 33 84.2105 32.1855 83.8589 30.5566C83.7769 30.0996 83.7359 29.625 83.7359 29.1328H83.648C83.4722 29.2383 82.7281 30.041 81.4156 31.541C80.5015 32.3145 79.6695 32.7012 78.9195 32.7012H78.8316C77.2027 32.7012 76.1948 31.875 75.8081 30.2227C75.7378 30.2227 75.6675 29.6543 75.5972 28.5176V27.4805C75.5972 24.9375 76.2066 20.9766 77.4253 15.5977C78.1753 12.7383 78.8257 10.7871 79.3765 9.74414C80.0679 8.86523 80.8413 8.42578 81.6968 8.42578ZM100.684 7.66992L101.264 7.58203C103.116 7.3125 104.932 8.0332 106.713 9.74414C107.475 10.6582 107.909 11.4961 108.014 12.2578L108.084 12.7148C108.202 13.5352 107.838 14.2383 106.995 14.8242C106.549 15.0703 106.139 15.2227 105.764 15.2812C104.862 15.4102 104.053 14.7832 103.338 13.4004C102.846 12.6035 102.307 12.2461 101.721 12.3281C101.135 12.4102 100.76 12.873 100.596 13.7168L100.614 14.1035L100.631 14.2266C100.702 14.7305 101.34 15.3691 102.547 16.1426C105.161 18.2168 106.579 19.5117 106.801 20.0273C107.598 21.0117 108.079 22.0664 108.243 23.1914L108.278 23.4199C108.571 25.4707 108.008 27.6328 106.59 29.9062C105.243 31.7227 103.731 32.748 102.055 32.9824L101.668 33.0352C99.723 33.3164 97.8598 32.6074 96.0785 30.9082C94.8363 29.4434 94.1156 28.0371 93.9164 26.6895L93.8461 26.1797C93.6117 24.5391 94.2035 23.1973 95.6215 22.1543C95.9496 21.9199 96.3246 21.7734 96.7465 21.7148C97.8715 21.5508 98.7621 22.0312 99.4184 23.1562L99.5062 23.5254L99.559 23.877C99.6176 24.2871 99.3656 24.9199 98.8031 25.7754C98.7328 26.0098 98.7035 26.2031 98.7152 26.3555C98.7973 26.9062 99.307 27.4922 100.245 28.1133C100.573 28.207 100.789 28.2422 100.895 28.2188L101.282 28.166C101.856 28.084 102.471 27.5332 103.127 26.5137C103.409 25.7285 103.502 25.0254 103.409 24.4043L103.391 24.2461C103.215 23.0273 102.536 22.002 101.352 21.1699L98.1527 18.832C96.8168 17.7891 96.0316 16.4707 95.7973 14.877C95.5277 12.9902 96.1137 11.1621 97.5551 9.39258C98.5863 8.39648 99.6293 7.82227 100.684 7.66992ZM119.9 1.28906H120.199C120.866 1.28906 121.294 1.85156 121.482 2.97656L121.517 3.69727C121.517 4.70508 121.077 6.5918 120.199 9.35742C119.472 12.1348 118.775 14.4668 118.107 16.3535L117.878 17.4082L117.949 17.6016C118.183 17.5195 118.669 16.9395 119.408 15.8613C120.755 14.1152 122.109 12.8262 123.468 11.9941C124.066 11.7246 124.505 11.5898 124.786 11.5898H124.945C126.093 11.5898 126.866 12.123 127.265 13.1895C127.394 13.6699 127.458 14.0625 127.458 14.3672V14.9648C127.458 16.5234 126.779 19.3887 125.419 23.5605C125.22 24.1816 124.822 26.2617 124.224 29.8008C123.966 31.125 123.726 31.8516 123.503 31.9805C122.952 32.6133 122.378 32.9297 121.781 32.9297H121.447C120.79 32.9297 120.216 32.4668 119.724 31.541C119.595 31.1543 119.531 30.8027 119.531 30.4863V30.0645C119.531 29.3965 119.982 27.0586 120.884 23.0508L121.025 21.9082L120.99 21.7324H120.954C120.685 21.7676 120.257 22.2422 119.671 23.1562C119.144 23.918 117.257 26.8125 114.011 31.8398C113.425 32.6133 112.81 33 112.165 33H111.937C111.105 33 110.49 32.3613 110.091 31.084L110.021 30.293V29.9941C110.021 29.4082 110.361 27.8789 111.04 25.4062C112.212 20.6133 113.249 16.7051 114.152 13.6816C115.546 7.64648 116.847 3.83789 118.054 2.25586C118.593 1.61133 119.208 1.28906 119.9 1.28906Z" fill="white"/>
</svg>
