<svg width="12" height="16" viewBox="0 0 31 41" fill="none" xmlns="http://www.w3.org/2000/svg">
<path d="M26.9062 15.375H25.625V10.25C25.625 4.59713 21.0279 0 15.375 0C9.72213 0 5.125 4.59713 5.125 10.25V15.375H3.84375C1.72542 15.375 0 17.0987 0 19.2188V37.1562C0 39.2763 1.72542 41 3.84375 41H26.9062C29.0246 41 30.75 39.2763 30.75 37.1562V19.2188C30.75 17.0987 29.0246 15.375 26.9062 15.375ZM8.54167 10.25C8.54167 6.48142 11.6064 3.41667 15.375 3.41667C19.1436 3.41667 22.2083 6.48142 22.2083 10.25V15.375H8.54167V10.25ZM17.0833 28.5668V32.4583C17.0833 33.4013 16.3197 34.1667 15.375 34.1667C14.4303 34.1667 13.6667 33.4013 13.6667 32.4583V28.5668C12.6502 27.974 11.9583 26.884 11.9583 25.625C11.9583 23.7407 13.4907 22.2083 15.375 22.2083C17.2593 22.2083 18.7917 23.7407 18.7917 25.625C18.7917 26.884 18.0998 27.974 17.0833 28.5668Z" fill="white"/>
</svg>
