<svg width="18" height="18" viewBox="0 0 18 18" fill="none" xmlns="http://www.w3.org/2000/svg">
<g clip-path="url(#clip0)">
<path d="M8.7628 9.48187C9.84119 9.48187 10.775 9.0951 11.538 8.332C12.3009 7.56903 12.6877 6.63548 12.6877 5.55697C12.6877 4.47884 12.3009 3.54517 11.5378 2.78194C10.7747 2.0191 9.84107 1.63232 8.7628 1.63232C7.68429 1.63232 6.75074 2.0191 5.98776 2.78207C5.22479 3.54504 4.83789 4.47871 4.83789 5.55697C4.83789 6.63548 5.22479 7.56915 5.98789 8.33213C6.75099 9.09498 7.68466 9.48187 8.7628 9.48187Z" fill="#1877F2"/>
<path d="M15.6288 14.1634C15.6068 13.8459 15.5623 13.4995 15.4968 13.1338C15.4306 12.7653 15.3455 12.4169 15.2435 12.0985C15.1382 11.7694 14.995 11.4445 14.818 11.133C14.6342 10.8098 14.4184 10.5283 14.1762 10.2967C13.923 10.0544 13.6129 9.85959 13.2543 9.71749C12.897 9.57613 12.5011 9.50452 12.0775 9.50452C11.9111 9.50452 11.7503 9.57277 11.4396 9.77505C11.2484 9.89974 11.0247 10.044 10.7751 10.2035C10.5616 10.3395 10.2724 10.4669 9.91524 10.5823C9.56676 10.695 9.21293 10.7522 8.8637 10.7522C8.51448 10.7522 8.16078 10.695 7.81192 10.5823C7.45511 10.467 7.16593 10.3396 6.95272 10.2036C6.70544 10.0456 6.48165 9.90136 6.28758 9.77492C5.97727 9.57265 5.81627 9.50439 5.64993 9.50439C5.22623 9.50439 4.83038 9.57613 4.4732 9.71761C4.1149 9.85946 3.80471 10.0543 3.55121 10.2968C3.30915 10.5286 3.0932 10.8099 2.9097 11.133C2.73278 11.4445 2.58956 11.7693 2.48414 12.0987C2.38231 12.417 2.29715 12.7653 2.23101 13.1338C2.16549 13.499 2.12098 13.8455 2.09898 14.1638C2.07735 14.4756 2.06641 14.7992 2.06641 15.1261C2.06641 15.9767 2.33681 16.6653 2.87004 17.1732C3.39667 17.6743 4.09351 17.9286 4.9409 17.9286H12.7872C13.6346 17.9286 14.3312 17.6744 14.858 17.1732C15.3913 16.6657 15.6617 15.9769 15.6617 15.1259C15.6616 14.7976 15.6506 14.4737 15.6288 14.1634Z" fill="#1877F2"/>
</g>
<defs>
<clipPath id="clip0">
<rect width="16.2954" height="16.2954" fill="white" transform="translate(0.730469 1.63232)"/>
</clipPath>
</defs>
</svg>
