<svg width="22" height="20" viewBox="0 0 22 20" fill="none" xmlns="http://www.w3.org/2000/svg">
<path d="M16.1562 0C14.9624 0 13.8679 0.384184 12.9032 1.14191C11.9783 1.86834 11.3625 2.79358 11 3.46639C10.6375 2.79354 10.0217 1.86834 9.09679 1.14191C8.13205 0.384184 7.03755 0 5.84375 0C2.5123 0 0 2.76736 0 6.43714C0 10.4018 3.13427 13.1143 7.87914 17.2207C8.68489 17.9181 9.59819 18.7086 10.5475 19.5516C10.6726 19.6629 10.8333 19.7241 11 19.7241C11.1667 19.7241 11.3274 19.6629 11.4525 19.5516C12.4019 18.7085 13.3152 17.9181 14.1214 17.2203C18.8657 13.1143 22 10.4018 22 6.43714C22 2.76736 19.4877 0 16.1562 0Z" fill="#FF4D4D"/>
</svg>
