<svg width="21" height="21" viewBox="0 0 21 21" fill="none" xmlns="http://www.w3.org/2000/svg">
<path d="M10.4988 15.0699C7.97936 15.0699 5.92969 13.0202 5.92969 10.5008C5.92969 7.98135 7.97936 5.93164 10.4988 5.93164C13.0183 5.93164 15.068 7.98135 15.068 10.5008C15.068 13.0202 13.0183 15.0699 10.4988 15.0699V15.0699ZM10.4988 7.16211C8.65784 7.16211 7.16016 8.65984 7.16016 10.5008C7.16016 12.3417 8.65788 13.8395 10.4988 13.8395C12.3398 13.8395 13.8375 12.3417 13.8375 10.5008C13.8375 8.65984 12.3398 7.16211 10.4988 7.16211V7.16211Z" fill="#365969"/>
<path d="M11.159 21H9.841C8.77505 21 7.90777 20.1328 7.90777 19.0668V18.6209C7.45459 18.4761 7.01429 18.2934 6.59129 18.0745L6.27531 18.3905C5.51 19.1567 4.28408 19.1342 3.541 18.3902L2.6095 17.4587C1.8651 16.7151 1.84369 15.4896 2.60974 14.7244L2.92548 14.4087C2.70658 13.9857 2.52386 13.5455 2.37903 13.0922H1.93319C0.867275 13.0922 0 12.225 0 11.159V9.841C0 8.77505 0.867275 7.90781 1.93323 7.90781H2.37907C2.5239 7.45459 2.70662 7.01433 2.92552 6.59133L2.60954 6.27539C1.84394 5.51061 1.86506 4.28498 2.60978 3.54108L3.54137 2.60954C4.28617 1.86371 5.5118 1.84509 6.27564 2.60978L6.59133 2.92548C7.01433 2.70662 7.45463 2.52386 7.90781 2.37903V1.93319C7.90781 0.867234 8.77505 0 9.84104 0H11.159C12.225 0 13.0922 0.867234 13.0922 1.93319V2.37907C13.5454 2.52386 13.9857 2.70662 14.4087 2.92552L14.7247 2.60954C15.49 1.84328 16.7159 1.86576 17.459 2.60982L18.3905 3.54129C19.1349 4.28486 19.1563 5.51037 18.3902 6.2756L18.0745 6.59133C18.2934 7.01433 18.4761 7.45455 18.6209 7.90781H19.0668C20.1327 7.90781 21 8.77505 21 9.841V11.159C21 12.225 20.1327 13.0922 19.0668 13.0922H18.6209C18.4761 13.5454 18.2934 13.9857 18.0745 14.4087L18.3905 14.7247C19.1561 15.4894 19.1349 16.7151 18.3902 17.459L17.4586 18.3905C16.7138 19.1363 15.4882 19.155 14.7244 18.3903L14.4087 18.0746C13.9857 18.2934 13.5454 18.4762 13.0922 18.621V19.0669C13.0922 20.1328 12.225 21 11.159 21V21ZM6.79699 16.7824C7.38462 17.1299 8.01708 17.3924 8.67677 17.5627C8.94846 17.6328 9.13828 17.8778 9.13828 18.1584V19.0668C9.13828 19.4543 9.45357 19.7695 9.84104 19.7695H11.159C11.5465 19.7695 11.8618 19.4543 11.8618 19.0668V18.1584C11.8618 17.8778 12.0516 17.6328 12.3233 17.5627C12.983 17.3924 13.6154 17.1299 14.2031 16.7824C14.4448 16.6394 14.7527 16.6783 14.9513 16.8769L15.5948 17.5204C15.8722 17.7982 16.3177 17.7917 16.5883 17.5207L17.5205 16.5886C17.7904 16.3189 17.7995 15.8733 17.5207 15.595L16.877 14.9512C16.6784 14.7526 16.6395 14.4448 16.7824 14.203C17.13 13.6154 17.3925 12.983 17.5627 12.3232C17.6329 12.0515 17.8779 11.8618 18.1584 11.8618H19.0668C19.4543 11.8618 19.7696 11.5465 19.7696 11.159V9.84104C19.7696 9.45357 19.4543 9.13832 19.0668 9.13832H18.1584C17.8778 9.13832 17.6329 8.9485 17.5627 8.67686C17.3925 8.01712 17.1299 7.38466 16.7824 6.79707C16.6395 6.55532 16.6784 6.24746 16.877 6.04886L17.5205 5.40537C17.7986 5.12753 17.7914 4.6821 17.5207 4.41176L16.5886 3.47968C16.3185 3.20914 15.8729 3.20123 15.595 3.47944L14.9513 4.12318C14.7527 4.32182 14.4448 4.3607 14.2031 4.21772C13.6155 3.87019 12.983 3.60765 12.3233 3.4374C12.0516 3.3673 11.8618 3.12227 11.8618 2.84169V1.93319C11.8618 1.54571 11.5465 1.23047 11.159 1.23047H9.84108C9.45361 1.23047 9.13832 1.54571 9.13832 1.93319V2.8416C9.13832 3.12219 8.9485 3.36722 8.67681 3.43731C8.01712 3.60757 7.38466 3.87011 6.79703 4.21764C6.5552 4.36058 6.24738 4.32169 6.04878 4.1231L5.40533 3.4796C5.1279 3.20184 4.68234 3.20828 4.41176 3.47931L3.4796 4.41144C3.20964 4.68107 3.20061 5.12662 3.47936 5.40504L4.1231 6.04878C4.32169 6.24738 4.36058 6.55524 4.21764 6.79699C3.87011 7.38458 3.60761 8.01704 3.43736 8.67677C3.36722 8.94846 3.12219 9.13824 2.84164 9.13824H1.93323C1.54576 9.13828 1.23047 9.45353 1.23047 9.841V11.159C1.23047 11.5465 1.54576 11.8617 1.93323 11.8617H2.8416C3.12219 11.8617 3.36718 12.0515 3.43731 12.3232C3.60757 12.9829 3.87011 13.6154 4.2176 14.203C4.36054 14.4447 4.32165 14.7526 4.12305 14.9512L3.47956 15.5947C3.20139 15.8725 3.20865 16.3179 3.47931 16.5883L4.41139 17.5204C4.68156 17.7909 5.12716 17.7988 5.405 17.5206L6.0487 16.8769C6.19504 16.7306 6.4995 16.6064 6.79699 16.7824V16.7824Z" fill="#365969"/>
</svg>
