<svg width="82" height="86" viewBox="0 0 82 86" fill="none" xmlns="http://www.w3.org/2000/svg">
<path d="M57.4317 60.7561H55.8138C59.2574 60.7561 62.0578 63.5142 62.123 66.9437C62.1917 70.4807 59.2275 73.378 55.6887 73.378H53.3871C55.13 73.378 56.7074 74.0847 57.8494 75.2267C58.9915 76.3688 59.6981 77.946 59.6981 79.6891C59.6981 80.2654 59.6205 80.8222 59.4761 81.351C58.7483 84.0315 56.2969 86.0001 53.3871 86.0001H17.0016L7.44618 79.4633C6.48034 78.8025 5.42649 78.2949 4.31972 77.9529C3.21296 77.6111 2.05681 77.4349 0.886719 77.4349V40.8839H2.66487C5.70314 40.8839 8.32904 38.8202 9.12035 35.8859C9.12388 35.8701 9.12926 35.8525 9.13446 35.8349C10.5884 30.5249 15.056 26.8487 20.1862 26.1454L23.6086 13.6539C24.7382 9.53 28.4762 6.82129 32.5561 6.82129C33.3667 6.82129 34.1915 6.92879 35.0129 7.15253C39.9579 8.50772 42.8677 13.6132 41.5142 18.5585L36.8705 35.5105H59.0496C62.4932 35.5105 65.2936 38.2703 65.3588 41.6981C65.4275 45.2369 62.4633 48.1324 58.9245 48.1324H57.4317C59.1747 48.1324 60.752 48.8391 61.894 49.9811C63.0361 51.1231 63.7427 52.7022 63.7427 54.4434C63.7426 57.9294 60.9176 60.7561 57.4317 60.7561Z" fill="#FFDDCE"/>
<path d="M59.474 81.3506C58.7461 84.0311 56.2948 85.9997 53.385 85.9997H16.9996L7.44423 79.4629C6.47839 78.8021 5.42454 78.2945 4.31777 77.9525C3.21101 77.6107 2.05486 77.4345 0.884766 77.4345V71.8496H5.92224C10.2233 71.8496 14.3482 73.5584 17.3892 76.6C20.4301 79.6416 24.555 81.3504 28.8561 81.3504H59.474V81.3506Z" fill="#FFCBBE"/>
<path d="M36.8067 7.8516C34.5755 8.99884 32.8132 11.0432 32.0976 13.655L28.6752 26.1466C23.545 26.8497 19.0774 30.5259 17.6235 35.836C17.6188 35.853 17.6142 35.8704 17.6097 35.8886C16.0373 42.083 10.4466 46.412 4.05557 46.412H0.884766V40.8849H2.66291C5.70119 40.8849 8.32709 38.8212 9.1184 35.8869C9.12378 35.8711 9.12731 35.8535 9.13251 35.8358C10.5865 30.5259 15.054 26.8497 20.1859 26.1464L23.6066 13.6548C24.7362 9.53098 28.4743 6.82227 32.5542 6.82227C33.3648 6.82227 34.1897 6.92977 35.0109 7.15351C35.6453 7.32803 36.2445 7.56252 36.8067 7.8516Z" fill="#FFCBBE"/>
<path d="M70.3362 31.58L70.2192 31.1433C69.8065 29.603 70.6569 28.0063 72.1653 27.4891L76.805 25.8984C78.4669 25.3286 80.2637 26.2856 80.7184 27.9826L81.0092 29.0677C81.4639 30.7647 80.3862 32.4918 78.6621 32.8292L73.8487 33.7716C72.2839 34.0779 70.749 33.1203 70.3362 31.58Z" fill="#95D6A4"/>
<path d="M62.9248 18.5084L62.6052 18.1887C61.4776 17.0611 61.4158 15.2531 62.4634 14.0511L65.6861 10.3537C66.8404 9.02921 68.8751 8.95967 70.1172 10.2018L70.9115 10.9962C72.1539 12.2385 72.0842 14.273 70.7597 15.4273L67.0623 18.65C65.8605 19.6979 64.0524 19.636 62.9248 18.5084Z" fill="#95D6A4"/>
<path d="M49.9704 10.8943L49.5337 10.7772C47.9934 10.3645 47.0358 8.82958 47.3421 7.26475L48.2845 2.45136C48.6219 0.727294 50.3492 -0.350412 52.046 0.104287L53.1311 0.395046C54.8281 0.849745 55.7851 2.64654 55.2153 4.30845L53.6246 8.94816C53.1074 10.4565 51.5107 11.307 49.9704 10.8943Z" fill="#95D6A4"/>
</svg>
