<svg width="59" height="67" viewBox="0 0 59 67" fill="none" xmlns="http://www.w3.org/2000/svg">
<path d="M18.4062 24.4062C18.9947 24.4062 19.559 24.64 19.9751 25.0561C20.3912 25.4722 20.625 26.0366 20.625 26.625V53.25C20.625 53.8384 20.3912 54.4028 19.9751 54.8189C19.559 55.235 18.9947 55.4688 18.4062 55.4688C17.8178 55.4688 17.2535 55.235 16.8374 54.8189C16.4213 54.4028 16.1875 53.8384 16.1875 53.25V26.625C16.1875 26.0366 16.4213 25.4722 16.8374 25.0561C17.2535 24.64 17.8178 24.4062 18.4062 24.4062ZM29.5 24.4062C30.0884 24.4062 30.6528 24.64 31.0689 25.0561C31.485 25.4722 31.7188 26.0366 31.7188 26.625V53.25C31.7188 53.8384 31.485 54.4028 31.0689 54.8189C30.6528 55.235 30.0884 55.4688 29.5 55.4688C28.9116 55.4688 28.3472 55.235 27.9311 54.8189C27.515 54.4028 27.2812 53.8384 27.2812 53.25V26.625C27.2812 26.0366 27.515 25.4722 27.9311 25.0561C28.3472 24.64 28.9116 24.4062 29.5 24.4062ZM42.8125 26.625C42.8125 26.0366 42.5787 25.4722 42.1626 25.0561C41.7465 24.64 41.1822 24.4062 40.5938 24.4062C40.0053 24.4062 39.441 24.64 39.0249 25.0561C38.6088 25.4722 38.375 26.0366 38.375 26.625V53.25C38.375 53.8384 38.6088 54.4028 39.0249 54.8189C39.441 55.235 40.0053 55.4688 40.5938 55.4688C41.1822 55.4688 41.7465 55.235 42.1626 54.8189C42.5787 54.4028 42.8125 53.8384 42.8125 53.25V26.625Z" fill="#FC4343"/>
<path fill-rule="evenodd" clip-rule="evenodd" d="M58.3438 13.3125C58.3438 14.4894 57.8762 15.6181 57.044 16.4503C56.2118 17.2825 55.0831 17.75 53.9062 17.75H51.6875V57.6875C51.6875 60.0413 50.7525 62.2987 49.0881 63.9631C47.4237 65.6275 45.1663 66.5625 42.8125 66.5625H16.1875C13.8337 66.5625 11.5763 65.6275 9.91193 63.9631C8.24754 62.2987 7.3125 60.0413 7.3125 57.6875V17.75H5.09375C3.91685 17.75 2.78816 17.2825 1.95596 16.4503C1.12377 15.6181 0.65625 14.4894 0.65625 13.3125V8.875C0.65625 7.6981 1.12377 6.56941 1.95596 5.73721C2.78816 4.90502 3.91685 4.4375 5.09375 4.4375H20.625C20.625 3.2606 21.0925 2.13191 21.9247 1.29971C22.7569 0.467521 23.8856 0 25.0625 0L33.9375 0C35.1144 0 36.2431 0.467521 37.0753 1.29971C37.9075 2.13191 38.375 3.2606 38.375 4.4375H53.9062C55.0831 4.4375 56.2118 4.90502 57.044 5.73721C57.8762 6.56941 58.3438 7.6981 58.3438 8.875V13.3125ZM12.2736 17.75L11.75 18.0118V57.6875C11.75 58.8644 12.2175 59.9931 13.0497 60.8253C13.8819 61.6575 15.0106 62.125 16.1875 62.125H42.8125C43.9894 62.125 45.1181 61.6575 45.9503 60.8253C46.7825 59.9931 47.25 58.8644 47.25 57.6875V18.0118L46.7264 17.75H12.2736ZM5.09375 13.3125V8.875H53.9062V13.3125H5.09375Z" fill="#FC4343"/>
</svg>
