<svg width="19" height="17" viewBox="0 0 19 17" fill="none" xmlns="http://www.w3.org/2000/svg">
<path d="M19 13.3594H17.8867V3.33984H19V0H0V3.33984H1.11332V13.3594H0V16.6992H19V13.3594ZM17.8867 2.22656H15.9941V1.11328H17.8867V2.22656ZM4.11914 2.22656V1.11328H5.97461V2.22656H4.11914ZM7.08789 1.11328H8.94336V2.22656H7.08789V1.11328ZM10.0566 1.11328H11.9121V2.22656H10.0566V1.11328ZM13.0254 1.11328H14.8809V2.22656H13.0254V1.11328ZM1.11328 1.11328H3.00586V2.22656H1.11328V1.11328ZM2.22656 3.33984H16.7735V13.3594H2.22656V3.33984ZM5.97461 14.4727V15.5859H4.11914V14.4727H5.97461ZM7.08789 14.4727H8.94336V15.5859H7.08789V14.4727ZM10.0566 14.4727H11.9121V15.5859H10.0566V14.4727ZM13.0254 14.4727H14.8809V15.5859H13.0254V14.4727ZM1.11328 14.4727H3.00586V15.5859H1.11328V14.4727ZM17.8867 15.5859H15.9941V14.4727H17.8867V15.5859Z" fill="#365969"/>
<path d="M7.83008 5.08301V11.6163L12.7301 8.34967L7.83008 5.08301ZM8.94336 7.16321L10.7231 8.34967L8.94336 9.53613V7.16321Z" fill="#365969"/>
</svg>
