<svg width="16" height="13" viewBox="0 0 16 13" fill="none" xmlns="http://www.w3.org/2000/svg">
<path d="M16 1.43956C16 0.86132 15.4231 0.392578 14.7114 0.392578H1.28859C0.576913 0.392578 0 0.86132 0 1.43956V11.5604C0 12.1386 0.576913 12.6073 1.28859 12.6073H14.7114C15.4231 12.6073 16 12.1386 16 11.5604V1.43956ZM4.88591 1.7013H7.19463V3.18452H4.88591V1.7013ZM3.27517 11.2986H1.61074V9.8154H3.27517V11.2986ZM3.27517 3.18452H1.61074V1.7013H3.27517V3.18452ZM7.19463 11.2986H4.88591V9.8154H7.19463V11.2986ZM6.60403 7.7087V5.29118C6.60403 4.93128 6.91909 4.79814 7.28966 4.99528L9.45004 6.14137C9.82062 6.33851 9.82362 6.66111 9.45305 6.85829L7.28816 8.0046C6.91758 8.20178 6.60403 8.0686 6.60403 7.7087ZM11.1141 11.2986H8.80537V9.8154H11.1141V11.2986ZM11.1141 3.18452H8.80537V1.7013H11.1141V3.18452ZM14.3893 11.2986H12.7248V9.8154H14.3893V11.2986ZM14.3893 3.18452H12.7248V1.7013H14.3893V3.18452Z" fill="#365969"/>
</svg>
