<svg width="21" height="19" viewBox="0 0 21 19" fill="none" xmlns="http://www.w3.org/2000/svg">
<path d="M18.6617 4.36055H18.4061V1.87861C18.4061 0.84277 17.5634 0 16.5275 0H2.90185C1.39825 0 0.158529 1.15008 0.0154195 2.6167C-0.00643604 2.72033 0.00134648 1.79692 0.00134648 16.0995C0.00134648 17.6989 1.30248 19 2.90181 19H18.6616C19.6975 19 20.5402 18.1573 20.5402 17.1214V6.23916C20.5403 5.20332 19.6975 4.36055 18.6617 4.36055ZM2.90185 1.29041H16.5275C16.8518 1.29041 17.1157 1.55429 17.1157 1.87865V4.36059H2.90185C2.0392 4.36059 1.333 3.67859 1.29365 2.8255C1.33296 1.97237 2.03916 1.29041 2.90185 1.29041ZM18.6617 17.7096H2.90185C2.01404 17.7096 1.29175 16.9874 1.29175 16.0995V5.16195C1.7527 5.47071 2.30659 5.65092 2.90185 5.65092H18.6617C18.986 5.65092 19.2499 5.9148 19.2499 6.23916V8.85482H14.3946C12.741 8.85482 11.3957 10.2001 11.3957 11.8536C11.3957 13.5072 12.741 14.8524 14.3946 14.8524H19.2499V17.1214C19.2499 17.4458 18.986 17.7096 18.6617 17.7096ZM19.2499 13.5621H14.3946C13.4525 13.5621 12.6861 12.7957 12.6861 11.8537C12.6861 10.9116 13.4525 10.1452 14.3946 10.1452H19.2499V13.5621Z" fill="#365969"/>
<path d="M14.6323 12.7871C15.1487 12.7871 15.5673 12.3684 15.5673 11.852C15.5673 11.3356 15.1487 10.917 14.6323 10.917C14.1159 10.917 13.6973 11.3356 13.6973 11.852C13.6973 12.3684 14.1159 12.7871 14.6323 12.7871Z" fill="#365969"/>
</svg>
